<?xml version="1.0" encoding="utf-8"?>
<!-- Generator: Adobe Illustrator 16.0.0, SVG Export Plug-In . SVG Version: 6.00 Build 0)  -->
<!DOCTYPE svg PUBLIC "-//W3C//DTD SVG 1.1//EN" "http://www.w3.org/Graphics/SVG/1.1/DTD/svg11.dtd">
<svg version="1.1" id="Layer_1" xmlns="http://www.w3.org/2000/svg" xmlns:xlink="http://www.w3.org/1999/xlink" x="0px" y="0px"
	 width="1509.15px" height="582.058px" viewBox="0 0 1509.15 582.058" enable-background="new 0 0 1509.15 582.058"
	 xml:space="preserve">
<rect display="none" fill="#289984" width="1509.15" height="582.058"/>
<g id="bright">
	<g>
		<g>
			<path fill="#C3E6E2" d="M824.425,50.162h-37.21l-40.22,109.28c-10.06,28.5-18.11,53.31-23.8,76.1h-1.01
				c-5.7-23.47-13.41-48.27-22.8-76.1l-38.55-109.28h-37.2l-15.76,225.94h27.82l6.04-96.88c2.01-33.85,3.68-71.73,4.35-99.89h0.67
				c6.37,26.82,15.43,55.98,26.15,87.82l36.54,107.61h22.13l39.89-109.62c11.39-31.17,20.78-59.33,28.49-85.81h1.01
				c-0.34,28.16,1.67,66.04,3.35,97.55l5.7,99.22h28.49L824.425,50.162z"/>
			<path fill="#C3E6E2" d="M998.405,237.221v-60.68c0-32.52-12.07-66.37-61.681-66.37c-20.45,0-39.899,5.7-53.3,14.41l6.7,19.44
				c11.399-7.37,27.149-12.06,42.24-12.06c33.18,0,36.87,24.13,36.87,37.54v3.35c-62.681-0.33-97.551,21.12-97.551,60.34
				c0,23.47,16.761,46.6,49.62,46.6c23.13,0,40.561-11.4,49.61-24.14h1l2.35,20.45h26.82
				C999.075,265.042,998.405,251.301,998.405,237.221z M969.905,221.461c0,3.02-0.67,6.37-1.67,9.39
				c-4.7,13.74-18.11,27.15-39.221,27.15c-15.09,0-27.83-9.05-27.83-28.16c0-31.51,36.54-37.21,68.721-36.54V221.461z"/>
			<path fill="#C3E6E2" d="M1117.735,110.171c-19.771,0-37.54,13.74-44.921,35.53h-1.34l-1-31.84h-25.81
				c1,15.08,1.34,31.51,1.34,50.61v111.63h29.16v-86.49c0-5.02,0.67-9.72,1.34-13.74c4.02-22.12,18.77-37.88,39.56-37.88
				c4.021,0,7.04,0.34,10.051,1.01v-27.83C1123.435,110.501,1121.095,110.171,1117.735,110.171z"/>
			<path fill="#C3E6E2" d="M1220.985,110.171c-44.921,0-80.45,31.84-80.45,86.15c0,51.29,33.859,83.47,77.77,83.47
				c39.22,0,80.79-26.15,80.79-86.15C1299.095,144.021,1267.585,110.171,1220.985,110.171z M1219.645,257.662
				c-28.83,0-49.279-26.81-49.279-62.35c0-30.84,15.09-63.02,49.949-63.02c34.86,0,48.61,34.86,48.61,62.35
				C1268.925,231.182,1247.805,257.662,1219.645,257.662z"/>
			<path fill="#C3E6E2" d="M1410.725,255.991c-32.18,0-56.319-23.13-56.319-60.68c0-33.85,20.109-61.34,57.319-61.34
				c16.09,0,27.16,3.69,34.2,7.71l6.7-22.8c-8.05-4.02-23.47-8.38-40.9-8.38c-52.96,0-87.149,36.21-87.149,86.15
				c0,49.62,31.84,82.8,80.779,82.8c21.79,0,38.891-5.36,46.601-9.38l-5.03-22.13
				C1438.545,251.631,1427.485,255.991,1410.725,255.991z"/>
		</g>
		<g>
			<path fill="#9AD6D0" d="M233.855,234.361c-25.6-27.82-64.38-41.74-116.34-41.74h-57.65v336.68h50.5
				c27.37,0,48.54-1.92,63.53-5.76c14.99-3.84,28.4-10.3,40.24-19.37c19.99-15.07,34.67-34.13,44.05-57.19
				c9.38-23.06,14.07-51.659,14.07-85.789C272.255,304.461,259.455,262.191,233.855,234.361z M186.235,440.181
				c-12.61,17.91-30.82,26.86-54.65,26.86h-5.31v-213.08h4.39c25.21,0,43.93,8.88,56.15,26.64c12.22,17.75,18.33,44.93,18.33,81.52
				C205.145,396.251,198.835,422.271,186.235,440.181z"/>
			<path fill="#9AD6D0" d="M676.495,315.761c-6.91-9.99-19.21-14.99-36.89-14.99c-12.92,0-24.49,3.08-34.71,9.23
				c-10.22,6.15-19.41,15.53-27.56,28.13v-35.05h-58.11v226.22h62.5v-134.21c0-13.06,1.76-22.439,5.3-28.13s9.3-8.53,17.3-8.53
				c7.37,0,12.6,2.42,15.68,7.261c3.07,4.84,4.61,13.72,4.61,26.64v136.97h62.26v-154.5
				C686.875,345.442,683.415,325.761,676.495,315.761z"/>
			<path fill="#9AD6D0" d="M887.505,315.761c-6.92-9.99-19.22-14.99-36.9-14.99c-12.909,0-24.479,3.08-34.71,9.23
				c-10.22,6.15-19.409,15.53-27.55,28.13v-35.05h-58.11v226.22h62.49v-134.21c0-13.06,1.761-22.439,5.3-28.13
				c3.54-5.69,9.301-8.53,17.301-8.53c7.38,0,12.6,2.42,15.68,7.261c3.07,4.84,4.61,13.72,4.61,26.64v136.97h62.26v-154.5
				C897.875,345.442,894.425,325.761,887.505,315.761z"/>
			<path fill="#9AD6D0" d="M1112.345,432.912v-10.84c0-40.58-7.609-71.25-22.83-92.011c-15.22-20.75-37.75-31.129-67.569-31.129
				c-28.131,0-50.5,10.53-67.11,31.589c-16.6,21.07-24.9,49.74-24.9,86.021c0,35.82,8.301,64.26,24.9,85.32
				c16.61,21.069,38.979,31.59,67.11,31.59c22.439,0,41.39-6.37,56.84-19.141c15.45-12.75,25.64-30.43,30.56-53.029h-53.729
				c-3.08,8.76-7.12,15.3-12.11,19.6c-5,4.3-11.03,6.45-18.1,6.45c-11.07,0-19.601-4.53-25.601-13.601
				c-5.99-9.069-8.99-22.06-8.99-38.97v-1.85H1112.345z M999.345,360.961c5.69-8.3,13.91-12.45,24.67-12.45
				c10.92,0,19.11,3.96,24.561,11.88c5.46,7.92,8.42,20.101,8.88,36.551l-66.641,0.229
				C990.814,381.332,993.655,369.261,999.345,360.961z"/>
			<path fill="#9AD6D0" d="M1247.475,303.082v145.51c0,11.53-1.649,19.45-4.96,23.75c-3.31,4.311-9.029,6.46-17.18,6.46
				s-13.83-2.07-17.061-6.22c-3.229-4.16-4.85-12.15-4.85-23.99v-145.51h-60.88v117.149c0,45.351,6.04,75.561,18.11,90.631
				c12.06,15.06,33.779,22.59,65.14,22.59c31.21,0,52.77-7.57,64.69-22.71c11.909-15.141,17.869-45.311,17.869-90.511V303.082
				H1247.475z"/>
			<path fill="#9AD6D0" d="M1431.035,310.122c-8.46,7.3-15.221,18.33-20.29,33.09v-40.13h-58.11v226.22h62.49v-106.3
				c0-27.521,2.96-45.16,8.88-52.93c5.91-7.761,17.1-11.641,33.55-11.641h4.15v-59.5
				C1449.715,299.091,1439.485,302.812,1431.035,310.122z"/>
			<g>
				<ellipse fill="#E64C3C" cx="392.255" cy="418.211" rx="51.5" ry="72"/>
				<path fill="#9AD6D0" d="M461.115,330.641c-17.06-21.14-39.97-31.709-68.72-31.709s-51.62,10.53-68.6,31.589
					c-16.99,21.07-25.49,49.511-25.49,85.33c0,36.13,8.5,64.761,25.49,85.9c16.98,21.14,39.85,31.7,68.6,31.7
					c28.6,0,51.46-10.601,68.61-31.82c17.14-21.21,25.71-49.81,25.71-85.78C486.715,380.181,478.185,351.782,461.115,330.641z
					 M428.865,445.391c-2.31,9.23-7.23,19.23-12.22,23.84c-18.96,17.5-48.74,9.631-57.06-11.84c-1.81-3.84-3.33-8.06-4.35-12.14
					c-0.88-3.55-1.4-7-1.39-9.99c0.01-6.649,1.18-12.979,3.96-20.12c0.02-20.18,3.02-35.699,8.99-46.569
					c5.97-10.851,14.44-16.311,25.43-16.37h0.17c11.07,0,19.64,5.5,25.71,16.49c6.07,10.989,9.11,26.56,9.11,46.699
					c0,0.79,0,1.57-0.02,2.351c2.18,6.29,3.08,12.01,3.05,17.979C430.235,438.631,429.735,441.952,428.865,445.391z"/>
				<path fill="#9AD6D0" d="M392.585,341.211c-25.4,0-46,34.03-46,76s20.6,76,46,76c25.41,0,46-34.03,46-76
					S417.995,341.211,392.585,341.211z M416.645,469.231c-18.96,17.5-48.74,9.631-57.06-11.84c-1.81-3.84-3.33-8.06-4.35-12.14
					c-0.88-3.55-1.4-7-1.39-9.99c0.01-6.649,1.18-12.979,3.96-20.12c3.05-7.819,8.04-16.63,15.59-27.93
					c8.56-12.79,17.05-30.03,18.83-35.01h0.1c1.57,4.689,10.08,22.3,18.68,35.35c8.17,12.4,13.31,21.811,16.19,30.19
					c2.18,6.29,3.08,12.01,3.05,17.979c-0.01,2.91-0.51,6.23-1.38,9.67C426.555,454.622,421.635,464.622,416.645,469.231z"/>
			</g>
		</g>
	</g>
	<g>
		<path fill="#E64C3C" d="M502.679,107.309c-4.985-43.382-55.834-72.081-98.998-49.066c-0.219,0.117-0.437,0.235-0.655,0.36
			c-0.218,0.122-0.44,0.247-0.659,0.38c-0.235,0.137-0.465,0.274-0.699,0.42c-0.198,0.121-0.4,0.25-0.599,0.376
			c-0.448,0.291-0.897,0.59-1.35,0.905c-0.214,0.149-0.429,0.299-0.647,0.453c-0.153,0.113-0.312,0.226-0.469,0.344
			c-0.158,0.113-0.315,0.23-0.473,0.347c-0.315,0.239-0.631,0.481-0.946,0.728c-0.162,0.125-0.319,0.25-0.478,0.375
			c-0.295,0.239-0.594,0.481-0.893,0.728c-0.299,0.247-0.599,0.498-0.897,0.756c-0.25,0.214-0.501,0.433-0.756,0.651
			c-0.347,0.308-0.695,0.619-1.046,0.938c-0.057,0.052-0.114,0.105-0.17,0.158c-0.028,0.024-0.056,0.048-0.084,0.077
			c-0.033,0.024-0.061,0.048-0.089,0.077c-0.004,0.004-0.004,0.008-0.004,0.008c-0.081,0.072-0.162,0.145-0.243,0.222
			c-8.344,7.757-16.725,18.705-22.679,29.568c-3.23,5.89-5.749,11.748-7.164,17.064c-1.888,7.087-3.008,14.166-3.299,21.685
			c0.724,0.542,1.387,1.156,1.848,1.924c0.732,1.209,0.825,2.919-0.169,3.917c-0.457,0.461-1.075,0.704-1.727,0.768
			c0.429,18.103,5.385,39.303,15.564,69.292c9.629,28.348,16.846,65.233,17.339,74.075c0.089-0.133,0.186-0.275,0.287-0.424
			c1.464-2.119,4.039-5.413,7.422-9.468c0.21-0.255,0.424-0.509,0.643-0.769c0.053-0.064,0.105-0.125,0.158-0.19
			c0.384-0.456,0.78-0.921,1.184-1.398c0.053-0.065,0.109-0.13,0.162-0.194c0.469-0.549,0.95-1.112,1.443-1.686
			c0.42-0.486,0.845-0.979,1.281-1.48c0.247-0.291,0.506-0.582,0.764-0.877c1.281-1.468,2.627-2.992,4.03-4.556
			c0.275-0.311,0.558-0.626,0.846-0.942c0.569-0.631,1.144-1.27,1.729-1.912c0.877-0.967,1.771-1.94,2.681-2.927
			c0.606-0.655,1.221-1.318,1.839-1.981c0.614-0.663,1.241-1.329,1.876-2c4.107-4.354,8.449-8.81,12.859-13.139
			c0.449-0.441,0.898-0.877,1.346-1.314c1.274-1.241,2.555-2.465,3.833-3.675c0.663-0.626,1.322-1.245,1.985-1.859
			c0.016-0.017,0.028-0.029,0.044-0.041c0.78-0.728,1.564-1.448,2.341-2.155c0.393-0.359,0.78-0.711,1.168-1.059
			c0.259-0.238,0.517-0.469,0.776-0.7c0.258-0.23,0.518-0.461,0.776-0.691c1.621-1.439,3.198-2.854,4.738-4.249
			c0.498-0.449,0.991-0.897,1.479-1.343c6.881-6.274,12.933-12.096,18.249-17.61c-4.212-3.218-8.594-6.574-13.801-7.511
			c-5.3-0.954-10.726,0.736-16.099,0.453c-4.992-0.263-9.852-2.227-14.84-1.92c-3.457,0.214-6.703,1.496-9.82,3.064
			c-1.245,0.623-2.47,1.293-3.678,1.961c-1.791-1.209-2.794-3.78-2.135-5.838c0.655-2.058,2.345-3.662,4.249-4.681
			c1.492-0.792,3.117-1.282,4.759-1.69c0.456-0.121,0.917-0.23,1.378-0.339c2.454-0.583,4.605-1.5,7.043-2.147
			c2.438-0.646,5.001-2.086,5.57-4.543c0.364-1.565-0.194-3.23-1.136-4.537c-0.938-1.302-2.224-2.308-3.501-3.283
			c-1.487-1.135-2.987-2.26-4.499-3.363c-7.847-5.769-15.96-11.17-24.231-16.312c-1.197-0.744-2.438-1.521-3.207-2.701
			c-0.772-1.181-0.926-2.886,0.033-3.921c0.715-0.768,1.875-0.986,2.911-0.809c1.035,0.174,1.981,0.683,2.903,1.185l23.597,12.811
			l0.635,0.344c1.337,0.724,2.967-0.307,2.854-1.823c-0.093-1.221-0.917-2.223-1.702-3.149c-0.292-0.348-0.583-0.695-0.874-1.043
			c-5.736-6.901-11.02-14.174-15.807-21.758c-0.731-1.16-1.472-2.369-1.641-3.727s0.388-2.906,1.633-3.469
			c1.011-0.453,2.228-0.157,3.141,0.469c0.914,0.622,1.584,1.532,2.244,2.417c3.274,4.395,7.418,9.541,11.595,14.384
			c2.894,3.359,5.805,6.578,8.449,9.306c0.501,0.518,1.338-0.081,1.011-0.724l-9.351-17.351l-3.525-6.541
			c-0.384-0.756-0.59-1.601-0.518-2.446c0.174-2.054,1.689-2.627,3.056-2.353c0.315,0.061,0.619,0.17,0.902,0.315
			c0.966,0.497,1.694,1.351,2.361,2.207c5.688,7.277,9.371,16.312,15.973,22.595c0.816,0.78,2.159,0.032,1.944-1.08l-3.533-18.305
			c-0.162-0.841-0.093-1.718,0.263-2.494c1.205-2.616,4.035-1.69,5.167,0.056c0.857,1.314,1.023,2.944,1.257,4.492
			c1.172,7.778,4.593,15.039,8.485,21.871c3.894,6.836,6.465,14.614,11.704,20.48c2.583,2.895,8.114,7.103,15.459,12.047
			c0.583-0.78,1.144-1.556,1.69-2.333c0.255-0.36,0.509-0.72,0.756-1.08c0.262-0.375,0.521-0.752,0.776-1.128
			c0.255-0.375,0.505-0.752,0.756-1.128c0.246-0.372,0.493-0.748,0.731-1.12c0.607-0.934,1.189-1.868,1.751-2.797
			c0.113-0.186,0.222-0.372,0.335-0.558c0.267-0.441,0.529-0.885,0.78-1.33c0.162-0.275,0.324-0.554,0.477-0.829
			c0.271-0.469,0.53-0.938,0.781-1.403c0.194-0.352,0.384-0.699,0.57-1.051c0.008-0.013,0.016-0.029,0.021-0.041
			c0.161-0.304,0.319-0.607,0.477-0.914c0.194-0.368,0.384-0.74,0.57-1.112c0.186-0.368,0.368-0.74,0.55-1.111
			c0.182-0.372,0.36-0.744,0.533-1.116c0.09-0.186,0.179-0.372,0.263-0.558l0.254-0.558c0.174-0.373,0.34-0.744,0.501-1.116
			c0.154-0.343,0.304-0.687,0.449-1.031c1.443-3.38,2.672-6.792,3.723-10.289c0.117-0.393,0.235-0.784,0.348-1.181
			c0.227-0.789,0.444-1.581,0.655-2.381c1.439-5.486,2.155-12.056,2.228-19C504.91,123.67,504.15,115.201,502.679,107.309z"/>
		<path fill="#E64C3C" d="M407.138,130.922c0.169,1.358,0.91,2.567,1.641,3.727c4.787,7.584,10.07,14.857,15.807,21.758
			c-0.263,1.847-0.565,3.739-0.914,5.671l-23.597-12.811c-0.922-0.501-1.868-1.011-2.903-1.185
			c-1.035-0.178-2.195,0.041-2.911,0.809c-0.958,1.035-0.805,2.741-0.033,3.921c0.769,1.18,2.01,1.957,3.207,2.701
			c8.271,5.142,16.384,10.543,24.231,16.312c-1.302,5.668-2.918,11.708-4.855,18.212c-1.642,0.408-3.267,0.897-4.759,1.69
			c-1.904,1.019-3.594,2.624-4.249,4.681c-0.659,2.058,0.344,4.629,2.135,5.838c1.208-0.667,2.433-1.338,3.678-1.961
			c-1.144,3.534-2.373,7.196-3.687,11c-8.882,25.708-15.807,58.47-17.408,70.877c-0.133,1.042-0.23,1.94-0.287,2.676
			c-4.763-7.462-29.136-36.077-51.419-56.068c-36.68-32.903-51.9-53.473-58.482-79.071c-1.37-5.329-2.049-11.667-2.118-18.386
			c-0.081-7.697,0.635-15.884,2.021-23.585c2.013,1.727,3.585,3.246,4.637,4.512c5.029,6.044,7.33,13.907,10.98,20.872
			c3.655,6.97,6.82,14.343,7.722,22.154c0.178,1.56,0.287,3.193,1.096,4.536c1.075,1.783,3.869,2.81,5.162,0.239
			c0.384-0.764,0.481-1.642,0.348-2.482l-2.887-18.422c-0.178-1.116,1.188-1.815,1.981-1.011c6.375,6.513,9.739,15.669,15.172,23.14
			c0.639,0.877,1.333,1.758,2.28,2.289c1.48,0.829,3.728,0.614,4.03-1.896c0.102-0.845-0.076-1.698-0.432-2.466l-12.035-24.325
			c-0.303-0.655,0.554-1.221,1.035-0.687c6.226,6.881,13.918,16.741,19.203,24.374c0.63,0.905,1.269,1.839,2.159,2.499
			c0.894,0.655,2.098,0.99,3.121,0.574c1.27-0.518,1.88-2.046,1.754-3.408c-0.122-1.363-0.817-2.6-1.508-3.784
			c-4.75-8.138-10.058-15.953-15.875-23.367c-0.748-0.954-1.541-1.985-1.589-3.209c-0.064-1.516,1.605-2.491,2.915-1.718
			l23.759,13.992c0.901,0.534,1.827,1.075,2.858,1.286c0.392,0.081,0.809,0.105,1.208,0.056c0.651-0.064,1.27-0.307,1.727-0.768
			c0.995-0.999,0.901-2.708,0.169-3.917c-0.46-0.768-1.124-1.382-1.848-1.924c-0.408-0.311-0.836-0.603-1.261-0.885
			c-9.638-6.473-19.049-13.301-28.023-20.667c-1.245-1.018-2.495-2.07-3.388-3.403c-0.894-1.334-1.395-3.02-0.979-4.572
			c0.655-2.434,3.271-3.784,5.729-4.346c2.458-0.562,4.641-1.403,7.111-1.9c2.118-0.429,4.265-0.866,6.206-1.815
			c1.94-0.95,3.682-2.494,4.41-4.528c0.728-2.033-0.182-4.637-1.928-5.91c-4.322,2.187-8.825,4.422-13.668,4.552
			c-4.998,0.133-9.784-2.001-14.76-2.438c-5.365-0.469-10.847,1.031-16.106-0.109c-4.479-0.966-8.279-3.731-11.882-6.638
			c0.101-0.166,0.202-0.328,0.303-0.485c23.678-37.043,73.241-40.722,101.625-15.402c0.004,0,0.004,0,0.004,0.004
			c3.193,2.846,6.121,6.064,8.712,9.642c5.15,6.161,9.965,13.167,13.797,20.157c3.344,6.088,5.943,12.165,7.374,17.65
			c0.938,3.598,1.682,7.196,2.215,10.847c-1.367-0.275-2.882,0.299-3.056,2.353c-0.073,0.845,0.133,1.69,0.518,2.446l3.525,6.541
			c0.084,2.85,0.048,5.765-0.109,8.769c-4.176-4.843-8.32-9.99-11.595-14.384c-0.659-0.885-1.33-1.795-2.244-2.417
			c-0.914-0.626-2.13-0.922-3.141-0.469C407.526,128.016,406.969,129.564,407.138,130.922z"/>
		<path opacity="0.1" fill="#2D2827" d="M502.679,107.309c-4.985-43.382-55.834-72.081-98.998-49.066
			c-0.219,0.117-0.437,0.235-0.655,0.36c-0.218,0.122-0.44,0.247-0.659,0.38c-0.235,0.137-0.465,0.274-0.699,0.42
			c-0.198,0.121-0.4,0.25-0.599,0.376c-0.448,0.291-0.897,0.59-1.35,0.905c-0.214,0.149-0.429,0.299-0.647,0.453
			c-0.153,0.113-0.312,0.226-0.469,0.344c-0.158,0.113-0.315,0.23-0.473,0.347c-0.315,0.239-0.631,0.481-0.946,0.728
			c-0.162,0.125-0.319,0.25-0.478,0.375c-0.295,0.239-0.594,0.481-0.893,0.728c-0.299,0.247-0.599,0.498-0.897,0.756
			c-0.25,0.214-0.501,0.433-0.756,0.651c-0.347,0.308-0.695,0.619-1.046,0.938c-0.057,0.052-0.114,0.105-0.17,0.158
			c-0.028,0.024-0.056,0.048-0.084,0.077c-0.029,0.028-0.057,0.053-0.085,0.081c-0.004,0-0.004,0-0.008,0.004
			c-0.081-0.073-0.162-0.142-0.243-0.215v218.306c1.464-2.119,4.039-5.413,7.422-9.468c0.21-0.255,0.424-0.509,0.643-0.769
			c0.053-0.064,0.105-0.125,0.158-0.19c0.384-0.456,0.78-0.921,1.184-1.398c0.053-0.065,0.109-0.13,0.162-0.194
			c0.469-0.549,0.95-1.112,1.443-1.686c0.42-0.486,0.845-0.979,1.281-1.48c0.251-0.291,0.506-0.582,0.764-0.877
			c1.281-1.468,2.627-2.992,4.03-4.556c0.279-0.311,0.562-0.626,0.846-0.942c0.569-0.631,1.144-1.27,1.729-1.912
			c0.877-0.967,1.771-1.94,2.681-2.927c0.606-0.655,1.221-1.318,1.839-1.981c0.619-0.663,1.246-1.333,1.876-2
			c4.107-4.354,8.449-8.81,12.859-13.139c0.449-0.441,0.898-0.877,1.346-1.314c1.274-1.241,2.555-2.465,3.833-3.675
			c0.663-0.626,1.322-1.245,1.985-1.859c0.016-0.017,0.028-0.029,0.044-0.041c0.78-0.728,1.564-1.448,2.341-2.155
			c0.393-0.359,0.78-0.711,1.168-1.059c0.259-0.238,0.517-0.469,0.776-0.7c0.258-0.23,0.518-0.461,0.776-0.691
			c1.621-1.439,3.198-2.854,4.738-4.249c0.498-0.449,0.991-0.897,1.479-1.343c6.881-6.274,12.933-12.096,18.249-17.61
			c-4.212-3.218-8.594-6.574-13.801-7.511c-5.3-0.954-10.726,0.736-16.099,0.453c-4.992-0.263-9.852-2.227-14.84-1.92
			c-3.457,0.214-6.703,1.496-9.82,3.064c-1.245,0.623-2.47,1.293-3.678,1.961c-1.791-1.209-2.794-3.78-2.135-5.838
			c0.655-2.058,2.345-3.662,4.249-4.681c1.492-0.792,3.117-1.282,4.759-1.69c0.456-0.121,0.917-0.23,1.378-0.339
			c2.454-0.583,4.605-1.5,7.043-2.147c2.438-0.646,5.001-2.086,5.57-4.543c0.364-1.565-0.194-3.23-1.136-4.537
			c-0.938-1.302-2.224-2.308-3.501-3.283c-1.487-1.135-2.987-2.26-4.499-3.363c-7.847-5.769-15.96-11.17-24.231-16.312
			c-1.197-0.744-2.438-1.521-3.207-2.701c-0.772-1.181-0.926-2.886,0.033-3.921c0.715-0.768,1.875-0.986,2.911-0.809
			c1.035,0.174,1.981,0.683,2.903,1.185l23.597,12.811l0.635,0.344c1.337,0.724,2.967-0.307,2.854-1.823
			c-0.093-1.221-0.917-2.223-1.702-3.149c-0.292-0.348-0.583-0.695-0.874-1.043c-5.736-6.901-11.02-14.174-15.807-21.758
			c-0.731-1.16-1.472-2.369-1.641-3.727s0.388-2.906,1.633-3.469c1.011-0.453,2.228-0.157,3.141,0.469
			c0.914,0.622,1.584,1.532,2.244,2.417c3.274,4.395,7.418,9.541,11.595,14.384c2.894,3.359,5.805,6.578,8.449,9.306
			c0.501,0.518,1.338-0.081,1.011-0.724l-9.351-17.351l-3.525-6.541c-0.384-0.756-0.59-1.601-0.518-2.446
			c0.174-2.054,1.689-2.627,3.056-2.353c0.315,0.061,0.619,0.17,0.902,0.315c0.966,0.497,1.694,1.351,2.361,2.207
			c5.688,7.277,9.371,16.312,15.973,22.595c0.816,0.78,2.159,0.032,1.944-1.08l-3.533-18.305c-0.162-0.841-0.093-1.718,0.263-2.494
			c1.205-2.616,4.035-1.69,5.167,0.056c0.857,1.314,1.023,2.944,1.257,4.492c1.172,7.778,4.593,15.039,8.485,21.871
			c3.894,6.836,6.465,14.614,11.704,20.48c2.583,2.895,8.114,7.103,15.459,12.047c0.583-0.78,1.144-1.556,1.69-2.333
			c0.259-0.36,0.514-0.72,0.756-1.08c0.262-0.375,0.521-0.752,0.776-1.128c0.255-0.375,0.505-0.752,0.756-1.128
			c0.25-0.375,0.493-0.748,0.731-1.12c0.607-0.934,1.189-1.868,1.751-2.797c0.113-0.186,0.222-0.372,0.335-0.558
			c0.267-0.441,0.529-0.885,0.78-1.33c0.162-0.275,0.324-0.554,0.477-0.829c0.271-0.469,0.53-0.938,0.781-1.403
			c0.194-0.352,0.384-0.699,0.57-1.051c0.008-0.013,0.016-0.029,0.021-0.041c0.161-0.304,0.319-0.607,0.477-0.914
			c0.194-0.368,0.384-0.74,0.57-1.112c0.186-0.368,0.368-0.74,0.55-1.111c0.182-0.372,0.36-0.744,0.533-1.116
			c0.09-0.186,0.179-0.372,0.263-0.558l0.254-0.558c0.174-0.373,0.34-0.744,0.501-1.116c0.154-0.343,0.304-0.687,0.449-1.031
			c1.443-3.38,2.672-6.792,3.723-10.289c0.117-0.393,0.235-0.784,0.348-1.181c0.227-0.789,0.444-1.581,0.655-2.381
			c1.439-5.486,2.155-12.056,2.228-19C504.91,123.67,504.15,115.201,502.679,107.309z M468.178,206.201
			c1.246-1.286,2.446-2.555,3.606-3.809C470.62,203.646,469.419,204.916,468.178,206.201z"/>
	</g>
</g>
<g id="default_1_" display="none">
	<g display="inline">
		<g>
			<path fill="#9AD6D0" d="M824.425,50.162h-37.21l-40.22,109.28c-10.06,28.5-18.11,53.31-23.8,76.1h-1.01
				c-5.7-23.47-13.41-48.27-22.8-76.1l-38.55-109.28h-37.2l-15.76,225.94h27.82l6.04-96.88c2.01-33.85,3.68-71.73,4.35-99.89h0.67
				c6.37,26.82,15.43,55.98,26.15,87.82l36.54,107.61h22.13l39.89-109.62c11.39-31.17,20.78-59.33,28.49-85.81h1.01
				c-0.34,28.16,1.67,66.04,3.35,97.55l5.7,99.22h28.49L824.425,50.162z"/>
			<path fill="#9AD6D0" d="M998.405,237.221v-60.68c0-32.52-12.07-66.37-61.681-66.37c-20.45,0-39.899,5.7-53.3,14.41l6.7,19.44
				c11.399-7.37,27.149-12.06,42.24-12.06c33.18,0,36.87,24.13,36.87,37.54v3.35c-62.681-0.33-97.551,21.12-97.551,60.34
				c0,23.47,16.761,46.6,49.62,46.6c23.13,0,40.561-11.4,49.61-24.14h1l2.35,20.45h26.82
				C999.075,265.042,998.405,251.301,998.405,237.221z M969.905,221.461c0,3.02-0.67,6.37-1.67,9.39
				c-4.7,13.74-18.11,27.15-39.221,27.15c-15.09,0-27.83-9.05-27.83-28.16c0-31.51,36.54-37.21,68.721-36.54V221.461z"/>
			<path fill="#9AD6D0" d="M1117.735,110.171c-19.771,0-37.54,13.74-44.921,35.53h-1.34l-1-31.84h-25.81
				c1,15.08,1.34,31.51,1.34,50.61v111.63h29.16v-86.49c0-5.02,0.67-9.72,1.34-13.74c4.02-22.12,18.77-37.88,39.56-37.88
				c4.021,0,7.04,0.34,10.051,1.01v-27.83C1123.435,110.501,1121.095,110.171,1117.735,110.171z"/>
			<path fill="#9AD6D0" d="M1220.985,110.171c-44.921,0-80.45,31.84-80.45,86.15c0,51.29,33.859,83.47,77.77,83.47
				c39.22,0,80.79-26.15,80.79-86.15C1299.095,144.021,1267.585,110.171,1220.985,110.171z M1219.645,257.662
				c-28.83,0-49.279-26.81-49.279-62.35c0-30.84,15.09-63.02,49.949-63.02c34.86,0,48.61,34.86,48.61,62.35
				C1268.925,231.182,1247.805,257.662,1219.645,257.662z"/>
			<path fill="#9AD6D0" d="M1410.725,255.991c-32.18,0-56.319-23.13-56.319-60.68c0-33.85,20.109-61.34,57.319-61.34
				c16.09,0,27.16,3.69,34.2,7.71l6.7-22.8c-8.05-4.02-23.47-8.38-40.9-8.38c-52.96,0-87.149,36.21-87.149,86.15
				c0,49.62,31.84,82.8,80.779,82.8c21.79,0,38.891-5.36,46.601-9.38l-5.03-22.13
				C1438.545,251.631,1427.485,255.991,1410.725,255.991z"/>
		</g>
		<g>
			<path fill="#57C0AC" d="M233.855,234.361c-25.6-27.82-64.38-41.74-116.34-41.74h-57.65v336.68h50.5
				c27.37,0,48.54-1.92,63.53-5.76c14.99-3.84,28.4-10.3,40.24-19.37c19.99-15.07,34.67-34.13,44.05-57.19
				c9.38-23.06,14.07-51.659,14.07-85.789C272.255,304.461,259.455,262.191,233.855,234.361z M186.235,440.181
				c-12.61,17.91-30.82,26.86-54.65,26.86h-5.31v-213.08h4.39c25.21,0,43.93,8.88,56.15,26.64c12.22,17.75,18.33,44.93,18.33,81.52
				C205.145,396.251,198.835,422.271,186.235,440.181z"/>
			<path fill="#57C0AC" d="M676.495,315.761c-6.91-9.99-19.21-14.99-36.89-14.99c-12.92,0-24.49,3.08-34.71,9.23
				c-10.22,6.15-19.41,15.53-27.56,28.13v-35.05h-58.11v226.22h62.5v-134.21c0-13.06,1.76-22.439,5.3-28.13s9.3-8.53,17.3-8.53
				c7.37,0,12.6,2.42,15.68,7.261c3.07,4.84,4.61,13.72,4.61,26.64v136.97h62.26v-154.5
				C686.875,345.442,683.415,325.761,676.495,315.761z"/>
			<path fill="#57C0AC" d="M887.505,315.761c-6.92-9.99-19.22-14.99-36.9-14.99c-12.909,0-24.479,3.08-34.71,9.23
				c-10.22,6.15-19.409,15.53-27.55,28.13v-35.05h-58.11v226.22h62.49v-134.21c0-13.06,1.761-22.439,5.3-28.13
				c3.54-5.69,9.301-8.53,17.301-8.53c7.38,0,12.6,2.42,15.68,7.261c3.07,4.84,4.61,13.72,4.61,26.64v136.97h62.26v-154.5
				C897.875,345.442,894.425,325.761,887.505,315.761z"/>
			<path fill="#57C0AC" d="M1112.345,432.912v-10.84c0-40.58-7.609-71.25-22.83-92.011c-15.22-20.75-37.75-31.129-67.569-31.129
				c-28.131,0-50.5,10.53-67.11,31.589c-16.6,21.07-24.9,49.74-24.9,86.021c0,35.82,8.301,64.26,24.9,85.32
				c16.61,21.069,38.979,31.59,67.11,31.59c22.439,0,41.39-6.37,56.84-19.141c15.45-12.75,25.64-30.43,30.56-53.029h-53.729
				c-3.08,8.76-7.12,15.3-12.11,19.6c-5,4.3-11.03,6.45-18.1,6.45c-11.07,0-19.601-4.53-25.601-13.601
				c-5.99-9.069-8.99-22.06-8.99-38.97v-1.85H1112.345z M999.345,360.961c5.69-8.3,13.91-12.45,24.67-12.45
				c10.92,0,19.11,3.96,24.561,11.88c5.46,7.92,8.42,20.101,8.88,36.551l-66.641,0.229
				C990.814,381.332,993.655,369.261,999.345,360.961z"/>
			<path fill="#57C0AC" d="M1247.475,303.082v145.51c0,11.53-1.649,19.45-4.96,23.75c-3.31,4.311-9.029,6.46-17.18,6.46
				s-13.83-2.07-17.061-6.22c-3.229-4.16-4.85-12.15-4.85-23.99v-145.51h-60.88v117.149c0,45.351,6.04,75.561,18.11,90.631
				c12.06,15.06,33.779,22.59,65.14,22.59c31.21,0,52.77-7.57,64.69-22.71c11.909-15.141,17.869-45.311,17.869-90.511V303.082
				H1247.475z"/>
			<path fill="#57C0AC" d="M1431.035,310.122c-8.46,7.3-15.221,18.33-20.29,33.09v-40.13h-58.11v226.22h62.49v-106.3
				c0-27.521,2.96-45.16,8.88-52.93c5.91-7.761,17.1-11.641,33.55-11.641h4.15v-59.5
				C1449.715,299.091,1439.485,302.812,1431.035,310.122z"/>
			<g>
				<ellipse fill="#E64C3C" cx="392.255" cy="418.211" rx="51.5" ry="72"/>
				<path fill="#57C0AC" d="M461.115,330.641c-17.06-21.14-39.97-31.709-68.72-31.709s-51.62,10.53-68.6,31.589
					c-16.99,21.07-25.49,49.511-25.49,85.33c0,36.13,8.5,64.761,25.49,85.9c16.98,21.14,39.85,31.7,68.6,31.7
					c28.6,0,51.46-10.601,68.61-31.82c17.14-21.21,25.71-49.81,25.71-85.78C486.715,380.181,478.185,351.782,461.115,330.641z
					 M428.865,445.391c-2.31,9.23-7.23,19.23-12.22,23.84c-18.96,17.5-48.74,9.631-57.06-11.84c-1.81-3.84-3.33-8.06-4.35-12.14
					c-0.88-3.55-1.4-7-1.39-9.99c0.01-6.649,1.18-12.979,3.96-20.12c0.02-20.18,3.02-35.699,8.99-46.569
					c5.97-10.851,14.44-16.311,25.43-16.37h0.17c11.07,0,19.64,5.5,25.71,16.49c6.07,10.989,9.11,26.56,9.11,46.699
					c0,0.79,0,1.57-0.02,2.351c2.18,6.29,3.08,12.01,3.05,17.979C430.235,438.631,429.735,441.952,428.865,445.391z"/>
				<path fill="#57C0AC" d="M392.585,341.211c-25.4,0-46,34.03-46,76s20.6,76,46,76c25.41,0,46-34.03,46-76
					S417.995,341.211,392.585,341.211z M416.645,469.231c-18.96,17.5-48.74,9.631-57.06-11.84c-1.81-3.84-3.33-8.06-4.35-12.14
					c-0.88-3.55-1.4-7-1.39-9.99c0.01-6.649,1.18-12.979,3.96-20.12c3.05-7.819,8.04-16.63,15.59-27.93
					c8.56-12.79,17.05-30.03,18.83-35.01h0.1c1.57,4.689,10.08,22.3,18.68,35.35c8.17,12.4,13.31,21.811,16.19,30.19
					c2.18,6.29,3.08,12.01,3.05,17.979c-0.01,2.91-0.51,6.23-1.38,9.67C426.555,454.622,421.635,464.622,416.645,469.231z"/>
			</g>
		</g>
	</g>
	<g display="inline">
		<path fill="#E64C3C" d="M502.679,107.309c-4.985-43.382-55.834-72.081-98.998-49.066c-0.219,0.117-0.437,0.235-0.655,0.36
			c-0.218,0.122-0.44,0.247-0.659,0.38c-0.235,0.137-0.465,0.274-0.699,0.42c-0.198,0.121-0.4,0.25-0.599,0.376
			c-0.448,0.291-0.897,0.59-1.35,0.905c-0.214,0.149-0.429,0.299-0.647,0.453c-0.153,0.113-0.312,0.226-0.469,0.344
			c-0.158,0.113-0.315,0.23-0.473,0.347c-0.315,0.239-0.631,0.481-0.946,0.728c-0.162,0.125-0.319,0.25-0.478,0.375
			c-0.295,0.239-0.594,0.481-0.893,0.728c-0.299,0.247-0.599,0.498-0.897,0.756c-0.25,0.214-0.501,0.433-0.756,0.651
			c-0.347,0.308-0.695,0.619-1.046,0.938c-0.057,0.052-0.114,0.105-0.17,0.158c-0.028,0.024-0.056,0.048-0.084,0.077
			c-0.033,0.024-0.061,0.048-0.089,0.077c-0.004,0.004-0.004,0.008-0.004,0.008c-0.081,0.072-0.162,0.145-0.243,0.222
			c-8.344,7.757-16.725,18.705-22.679,29.568c-3.23,5.89-5.749,11.748-7.164,17.064c-1.888,7.087-3.008,14.166-3.299,21.685
			c0.724,0.542,1.387,1.156,1.848,1.924c0.732,1.209,0.825,2.919-0.169,3.917c-0.457,0.461-1.075,0.704-1.727,0.768
			c0.429,18.103,5.385,39.303,15.564,69.292c9.629,28.348,16.846,65.233,17.339,74.075c0.089-0.133,0.186-0.275,0.287-0.424
			c1.464-2.119,4.039-5.413,7.422-9.468c0.21-0.255,0.424-0.509,0.643-0.769c0.053-0.064,0.105-0.125,0.158-0.19
			c0.384-0.456,0.78-0.921,1.184-1.398c0.053-0.065,0.109-0.13,0.162-0.194c0.469-0.549,0.95-1.112,1.443-1.686
			c0.42-0.486,0.845-0.979,1.281-1.48c0.247-0.291,0.506-0.582,0.764-0.877c1.281-1.468,2.627-2.992,4.03-4.556
			c0.275-0.311,0.558-0.626,0.846-0.942c0.569-0.631,1.144-1.27,1.729-1.912c0.877-0.967,1.771-1.94,2.681-2.927
			c0.606-0.655,1.221-1.318,1.839-1.981c0.614-0.663,1.241-1.329,1.876-2c4.107-4.354,8.449-8.81,12.859-13.139
			c0.449-0.441,0.898-0.877,1.346-1.314c1.274-1.241,2.555-2.465,3.833-3.675c0.663-0.626,1.322-1.245,1.985-1.859
			c0.016-0.017,0.028-0.029,0.044-0.041c0.78-0.728,1.564-1.448,2.341-2.155c0.393-0.359,0.78-0.711,1.168-1.059
			c0.259-0.238,0.517-0.469,0.776-0.7c0.258-0.23,0.518-0.461,0.776-0.691c1.621-1.439,3.198-2.854,4.738-4.249
			c0.498-0.449,0.991-0.897,1.479-1.343c6.881-6.274,12.933-12.096,18.249-17.61c-4.212-3.218-8.594-6.574-13.801-7.511
			c-5.3-0.954-10.726,0.736-16.099,0.453c-4.992-0.263-9.852-2.227-14.84-1.92c-3.457,0.214-6.703,1.496-9.82,3.064
			c-1.245,0.623-2.47,1.293-3.678,1.961c-1.791-1.209-2.794-3.78-2.135-5.838c0.655-2.058,2.345-3.662,4.249-4.681
			c1.492-0.792,3.117-1.282,4.759-1.69c0.456-0.121,0.917-0.23,1.378-0.339c2.454-0.583,4.605-1.5,7.043-2.147
			c2.438-0.646,5.001-2.086,5.57-4.543c0.364-1.565-0.194-3.23-1.136-4.537c-0.938-1.302-2.224-2.308-3.501-3.283
			c-1.487-1.135-2.987-2.26-4.499-3.363c-7.847-5.769-15.96-11.17-24.231-16.312c-1.197-0.744-2.438-1.521-3.207-2.701
			c-0.772-1.181-0.926-2.886,0.033-3.921c0.715-0.768,1.875-0.986,2.911-0.809c1.035,0.174,1.981,0.683,2.903,1.185l23.597,12.811
			l0.635,0.344c1.337,0.724,2.967-0.307,2.854-1.823c-0.093-1.221-0.917-2.223-1.702-3.149c-0.292-0.348-0.583-0.695-0.874-1.043
			c-5.736-6.901-11.02-14.174-15.807-21.758c-0.731-1.16-1.472-2.369-1.641-3.727s0.388-2.906,1.633-3.469
			c1.011-0.453,2.228-0.157,3.141,0.469c0.914,0.622,1.584,1.532,2.244,2.417c3.274,4.395,7.418,9.541,11.595,14.384
			c2.894,3.359,5.805,6.578,8.449,9.306c0.501,0.518,1.338-0.081,1.011-0.724l-9.351-17.351l-3.525-6.541
			c-0.384-0.756-0.59-1.601-0.518-2.446c0.174-2.054,1.689-2.627,3.056-2.353c0.315,0.061,0.619,0.17,0.902,0.315
			c0.966,0.497,1.694,1.351,2.361,2.207c5.688,7.277,9.371,16.312,15.973,22.595c0.816,0.78,2.159,0.032,1.944-1.08l-3.533-18.305
			c-0.162-0.841-0.093-1.718,0.263-2.494c1.205-2.616,4.035-1.69,5.167,0.056c0.857,1.314,1.023,2.944,1.257,4.492
			c1.172,7.778,4.593,15.039,8.485,21.871c3.894,6.836,6.465,14.614,11.704,20.48c2.583,2.895,8.114,7.103,15.459,12.047
			c0.583-0.78,1.144-1.556,1.69-2.333c0.255-0.36,0.509-0.72,0.756-1.08c0.262-0.375,0.521-0.752,0.776-1.128
			c0.255-0.375,0.505-0.752,0.756-1.128c0.246-0.372,0.493-0.748,0.731-1.12c0.607-0.934,1.189-1.868,1.751-2.797
			c0.113-0.186,0.222-0.372,0.335-0.558c0.267-0.441,0.529-0.885,0.78-1.33c0.162-0.275,0.324-0.554,0.477-0.829
			c0.271-0.469,0.53-0.938,0.781-1.403c0.194-0.352,0.384-0.699,0.57-1.051c0.008-0.013,0.016-0.029,0.021-0.041
			c0.161-0.304,0.319-0.607,0.477-0.914c0.194-0.368,0.384-0.74,0.57-1.112c0.186-0.368,0.368-0.74,0.55-1.111
			c0.182-0.372,0.36-0.744,0.533-1.116c0.09-0.186,0.179-0.372,0.263-0.558l0.254-0.558c0.174-0.373,0.34-0.744,0.501-1.116
			c0.154-0.343,0.304-0.687,0.449-1.031c1.443-3.38,2.672-6.792,3.723-10.289c0.117-0.393,0.235-0.784,0.348-1.181
			c0.227-0.789,0.444-1.581,0.655-2.381c1.439-5.486,2.155-12.056,2.228-19C504.91,123.67,504.15,115.201,502.679,107.309z"/>
		<path fill="#E64C3C" d="M407.138,130.922c0.169,1.358,0.91,2.567,1.641,3.727c4.787,7.584,10.07,14.857,15.807,21.758
			c-0.263,1.847-0.565,3.739-0.914,5.671l-23.597-12.811c-0.922-0.501-1.868-1.011-2.903-1.185
			c-1.035-0.178-2.195,0.041-2.911,0.809c-0.958,1.035-0.805,2.741-0.033,3.921c0.769,1.18,2.01,1.957,3.207,2.701
			c8.271,5.142,16.384,10.543,24.231,16.312c-1.302,5.668-2.918,11.708-4.855,18.212c-1.642,0.408-3.267,0.897-4.759,1.69
			c-1.904,1.019-3.594,2.624-4.249,4.681c-0.659,2.058,0.344,4.629,2.135,5.838c1.208-0.667,2.433-1.338,3.678-1.961
			c-1.144,3.534-2.373,7.196-3.687,11c-8.882,25.708-15.807,58.47-17.408,70.877c-0.133,1.042-0.23,1.94-0.287,2.676
			c-4.763-7.462-29.136-36.077-51.419-56.068c-36.68-32.903-51.9-53.473-58.482-79.071c-1.37-5.329-2.049-11.667-2.118-18.386
			c-0.081-7.697,0.635-15.884,2.021-23.585c2.013,1.727,3.585,3.246,4.637,4.512c5.029,6.044,7.33,13.907,10.98,20.872
			c3.655,6.97,6.82,14.343,7.722,22.154c0.178,1.56,0.287,3.193,1.096,4.536c1.075,1.783,3.869,2.81,5.162,0.239
			c0.384-0.764,0.481-1.642,0.348-2.482l-2.887-18.422c-0.178-1.116,1.188-1.815,1.981-1.011c6.375,6.513,9.739,15.669,15.172,23.14
			c0.639,0.877,1.333,1.758,2.28,2.289c1.48,0.829,3.728,0.614,4.03-1.896c0.102-0.845-0.076-1.698-0.432-2.466l-12.035-24.325
			c-0.303-0.655,0.554-1.221,1.035-0.687c6.226,6.881,13.918,16.741,19.203,24.374c0.63,0.905,1.269,1.839,2.159,2.499
			c0.894,0.655,2.098,0.99,3.121,0.574c1.27-0.518,1.88-2.046,1.754-3.408c-0.122-1.363-0.817-2.6-1.508-3.784
			c-4.75-8.138-10.058-15.953-15.875-23.367c-0.748-0.954-1.541-1.985-1.589-3.209c-0.064-1.516,1.605-2.491,2.915-1.718
			l23.759,13.992c0.901,0.534,1.827,1.075,2.858,1.286c0.392,0.081,0.809,0.105,1.208,0.056c0.651-0.064,1.27-0.307,1.727-0.768
			c0.995-0.999,0.901-2.708,0.169-3.917c-0.46-0.768-1.124-1.382-1.848-1.924c-0.408-0.311-0.836-0.603-1.261-0.885
			c-9.638-6.473-19.049-13.301-28.023-20.667c-1.245-1.018-2.495-2.07-3.388-3.403c-0.894-1.334-1.395-3.02-0.979-4.572
			c0.655-2.434,3.271-3.784,5.729-4.346c2.458-0.562,4.641-1.403,7.111-1.9c2.118-0.429,4.265-0.866,6.206-1.815
			c1.94-0.95,3.682-2.494,4.41-4.528c0.728-2.033-0.182-4.637-1.928-5.91c-4.322,2.187-8.825,4.422-13.668,4.552
			c-4.998,0.133-9.784-2.001-14.76-2.438c-5.365-0.469-10.847,1.031-16.106-0.109c-4.479-0.966-8.279-3.731-11.882-6.638
			c0.101-0.166,0.202-0.328,0.303-0.485c23.678-37.043,73.241-40.722,101.625-15.402c0.004,0,0.004,0,0.004,0.004
			c3.193,2.846,6.121,6.064,8.712,9.642c5.15,6.161,9.965,13.167,13.797,20.157c3.344,6.088,5.943,12.165,7.374,17.65
			c0.938,3.598,1.682,7.196,2.215,10.847c-1.367-0.275-2.882,0.299-3.056,2.353c-0.073,0.845,0.133,1.69,0.518,2.446l3.525,6.541
			c0.084,2.85,0.048,5.765-0.109,8.769c-4.176-4.843-8.32-9.99-11.595-14.384c-0.659-0.885-1.33-1.795-2.244-2.417
			c-0.914-0.626-2.13-0.922-3.141-0.469C407.526,128.016,406.969,129.564,407.138,130.922z"/>
		<path opacity="0.1" fill="#2D2827" d="M502.679,107.309c-4.985-43.382-55.834-72.081-98.998-49.066
			c-0.219,0.117-0.437,0.235-0.655,0.36c-0.218,0.122-0.44,0.247-0.659,0.38c-0.235,0.137-0.465,0.274-0.699,0.42
			c-0.198,0.121-0.4,0.25-0.599,0.376c-0.448,0.291-0.897,0.59-1.35,0.905c-0.214,0.149-0.429,0.299-0.647,0.453
			c-0.153,0.113-0.312,0.226-0.469,0.344c-0.158,0.113-0.315,0.23-0.473,0.347c-0.315,0.239-0.631,0.481-0.946,0.728
			c-0.162,0.125-0.319,0.25-0.478,0.375c-0.295,0.239-0.594,0.481-0.893,0.728c-0.299,0.247-0.599,0.498-0.897,0.756
			c-0.25,0.214-0.501,0.433-0.756,0.651c-0.347,0.308-0.695,0.619-1.046,0.938c-0.057,0.052-0.114,0.105-0.17,0.158
			c-0.028,0.024-0.056,0.048-0.084,0.077c-0.029,0.028-0.057,0.053-0.085,0.081c-0.004,0-0.004,0-0.008,0.004
			c-0.081-0.073-0.162-0.142-0.243-0.215v218.306c1.464-2.119,4.039-5.413,7.422-9.468c0.21-0.255,0.424-0.509,0.643-0.769
			c0.053-0.064,0.105-0.125,0.158-0.19c0.384-0.456,0.78-0.921,1.184-1.398c0.053-0.065,0.109-0.13,0.162-0.194
			c0.469-0.549,0.95-1.112,1.443-1.686c0.42-0.486,0.845-0.979,1.281-1.48c0.251-0.291,0.506-0.582,0.764-0.877
			c1.281-1.468,2.627-2.992,4.03-4.556c0.279-0.311,0.562-0.626,0.846-0.942c0.569-0.631,1.144-1.27,1.729-1.912
			c0.877-0.967,1.771-1.94,2.681-2.927c0.606-0.655,1.221-1.318,1.839-1.981c0.619-0.663,1.246-1.333,1.876-2
			c4.107-4.354,8.449-8.81,12.859-13.139c0.449-0.441,0.898-0.877,1.346-1.314c1.274-1.241,2.555-2.465,3.833-3.675
			c0.663-0.626,1.322-1.245,1.985-1.859c0.016-0.017,0.028-0.029,0.044-0.041c0.78-0.728,1.564-1.448,2.341-2.155
			c0.393-0.359,0.78-0.711,1.168-1.059c0.259-0.238,0.517-0.469,0.776-0.7c0.258-0.23,0.518-0.461,0.776-0.691
			c1.621-1.439,3.198-2.854,4.738-4.249c0.498-0.449,0.991-0.897,1.479-1.343c6.881-6.274,12.933-12.096,18.249-17.61
			c-4.212-3.218-8.594-6.574-13.801-7.511c-5.3-0.954-10.726,0.736-16.099,0.453c-4.992-0.263-9.852-2.227-14.84-1.92
			c-3.457,0.214-6.703,1.496-9.82,3.064c-1.245,0.623-2.47,1.293-3.678,1.961c-1.791-1.209-2.794-3.78-2.135-5.838
			c0.655-2.058,2.345-3.662,4.249-4.681c1.492-0.792,3.117-1.282,4.759-1.69c0.456-0.121,0.917-0.23,1.378-0.339
			c2.454-0.583,4.605-1.5,7.043-2.147c2.438-0.646,5.001-2.086,5.57-4.543c0.364-1.565-0.194-3.23-1.136-4.537
			c-0.938-1.302-2.224-2.308-3.501-3.283c-1.487-1.135-2.987-2.26-4.499-3.363c-7.847-5.769-15.96-11.17-24.231-16.312
			c-1.197-0.744-2.438-1.521-3.207-2.701c-0.772-1.181-0.926-2.886,0.033-3.921c0.715-0.768,1.875-0.986,2.911-0.809
			c1.035,0.174,1.981,0.683,2.903,1.185l23.597,12.811l0.635,0.344c1.337,0.724,2.967-0.307,2.854-1.823
			c-0.093-1.221-0.917-2.223-1.702-3.149c-0.292-0.348-0.583-0.695-0.874-1.043c-5.736-6.901-11.02-14.174-15.807-21.758
			c-0.731-1.16-1.472-2.369-1.641-3.727s0.388-2.906,1.633-3.469c1.011-0.453,2.228-0.157,3.141,0.469
			c0.914,0.622,1.584,1.532,2.244,2.417c3.274,4.395,7.418,9.541,11.595,14.384c2.894,3.359,5.805,6.578,8.449,9.306
			c0.501,0.518,1.338-0.081,1.011-0.724l-9.351-17.351l-3.525-6.541c-0.384-0.756-0.59-1.601-0.518-2.446
			c0.174-2.054,1.689-2.627,3.056-2.353c0.315,0.061,0.619,0.17,0.902,0.315c0.966,0.497,1.694,1.351,2.361,2.207
			c5.688,7.277,9.371,16.312,15.973,22.595c0.816,0.78,2.159,0.032,1.944-1.08l-3.533-18.305c-0.162-0.841-0.093-1.718,0.263-2.494
			c1.205-2.616,4.035-1.69,5.167,0.056c0.857,1.314,1.023,2.944,1.257,4.492c1.172,7.778,4.593,15.039,8.485,21.871
			c3.894,6.836,6.465,14.614,11.704,20.48c2.583,2.895,8.114,7.103,15.459,12.047c0.583-0.78,1.144-1.556,1.69-2.333
			c0.259-0.36,0.514-0.72,0.756-1.08c0.262-0.375,0.521-0.752,0.776-1.128c0.255-0.375,0.505-0.752,0.756-1.128
			c0.25-0.375,0.493-0.748,0.731-1.12c0.607-0.934,1.189-1.868,1.751-2.797c0.113-0.186,0.222-0.372,0.335-0.558
			c0.267-0.441,0.529-0.885,0.78-1.33c0.162-0.275,0.324-0.554,0.477-0.829c0.271-0.469,0.53-0.938,0.781-1.403
			c0.194-0.352,0.384-0.699,0.57-1.051c0.008-0.013,0.016-0.029,0.021-0.041c0.161-0.304,0.319-0.607,0.477-0.914
			c0.194-0.368,0.384-0.74,0.57-1.112c0.186-0.368,0.368-0.74,0.55-1.111c0.182-0.372,0.36-0.744,0.533-1.116
			c0.09-0.186,0.179-0.372,0.263-0.558l0.254-0.558c0.174-0.373,0.34-0.744,0.501-1.116c0.154-0.343,0.304-0.687,0.449-1.031
			c1.443-3.38,2.672-6.792,3.723-10.289c0.117-0.393,0.235-0.784,0.348-1.181c0.227-0.789,0.444-1.581,0.655-2.381
			c1.439-5.486,2.155-12.056,2.228-19C504.91,123.67,504.15,115.201,502.679,107.309z M468.178,206.201
			c1.246-1.286,2.446-2.555,3.606-3.809C470.62,203.646,469.419,204.916,468.178,206.201z"/>
	</g>
</g>
<g display="none">
	<text transform="matrix(0.8928 0 0 1 1082.499 113.8525)" display="inline" font-family="'Axis'" font-size="64.4991">Maroc</text>
	<text transform="matrix(1 0 0 1 949.8203 163.7593)" display="inline" font-family="'Axis'" font-size="72">Donneur</text>
</g>
<g display="none">
	
		<text transform="matrix(0.8928 0 0 1 649.3257 145.8892)" display="inline" font-family="'Questrial-Regular'" font-size="66.0745">Maroc</text>
	<text transform="matrix(0.8928 0 0 1 636.6445 140.7813)" font-family="'CenturyGothic'" font-size="63.5143">Maroc</text>
	<text transform="matrix(0.8928 0 0 1 657.6445 138.499)" font-family="'Gabriola'" font-size="96.946">Maroc</text>
	<text transform="matrix(1 0 0 1 538.9648 189.0195)" display="inline" font-family="'ProximaNova-Bold'" font-size="72">Donneur</text>
</g>
<g display="none">
	<text transform="matrix(0.8928 0 0 1 95.1665 13.8179)" font-family="'Questrial-Regular'" font-size="78.6042">Maroc</text>
	<text transform="matrix(0.8928 0 0 1 114.166 11.3413)" display="inline" font-family="'CenturyGothic'" font-size="63.5143">Maroc</text>
	<text transform="matrix(0.8928 0 0 1 135.166 9.0591)" font-family="'Gabriola'" font-size="96.946">Maroc</text>
	<text transform="matrix(1 0 0 1 16.4863 59.5796)" display="inline" font-family="'ProximaNova-Bold'" font-size="72">Donneur</text>
</g>
<g display="none">
	<text transform="matrix(0.8928 0 0 1 1047.3408 -11.4424)" font-family="'Questrial-Regular'" font-size="78.6042">Maroc</text>
	<text transform="matrix(0.8928 0 0 1 1066.3398 -13.9189)" font-family="'CenturyGothic'" font-size="63.5143">Maroc</text>
	<text transform="matrix(0.8928 0 0 1 1087.3398 -16.2012)" display="inline" font-family="'Gabriola'" font-size="96.946">Maroc</text>
	<text transform="matrix(1 0 0 1 968.6602 34.3193)" display="inline" font-family="'ProximaNova-Bold'" font-size="72">Donneur</text>
</g>
<g display="none">
	<text transform="matrix(0.8928 0 0 1 657.6445 281.2583)" display="inline" font-family="'Rockwell'" font-size="64.4991">Maroc</text>
	<text transform="matrix(1 0 0 1 524.9663 331.1646)" display="inline" font-family="'Rockwell-Bold'" font-size="72">Donneur</text>
</g>
<g display="none">
	
		<text transform="matrix(0.8928 0 0 1 1067.5166 256.3052)" display="inline" font-family="'TrajanPro-Regular'" font-size="52.7792">Maroc</text>
	
		<text transform="matrix(1 0 0 1 1012.1396 303.0078)" display="inline" font-family="'4f97ac65d814989297549b869cb3cdc7'" font-size="72">Donneur</text>
</g>
<path fill="#66457A" d="M481.024,191.962c-1.325,1.432-2.697,2.882-4.12,4.351C478.322,194.844,479.694,193.394,481.024,191.962z"/>
<path opacity="0.3" fill="#E64C3C" d="M392.325,352.202h-0.1c0.02-0.05,0.03-0.101,0.05-0.15
	C392.295,352.101,392.305,352.152,392.325,352.202z"/>
<g display="none">
	<text transform="matrix(1 0 0 1 339.4316 252.103)" display="inline" font-family="'MyriadPro-Regular'" font-size="335.2218">Maroc</text>
	
		<text transform="matrix(1 0 0 1 -215.6543 505.3052)" display="inline" font-family="'FuturaBT-BoldCondensed'" font-size="472.2765">Donneur</text>
</g>
</svg>
