<?xml version="1.0" encoding="utf-8"?>
<!-- Generator: Adobe Illustrator 16.0.0, SVG Export Plug-In . SVG Version: 6.00 Build 0)  -->
<!DOCTYPE svg PUBLIC "-//W3C//DTD SVG 1.1//EN" "http://www.w3.org/Graphics/SVG/1.1/DTD/svg11.dtd">
<svg version="1.1" id="Layer_1" xmlns="http://www.w3.org/2000/svg" xmlns:xlink="http://www.w3.org/1999/xlink" x="0px" y="0px"
	 width="238.508px" height="113.167px" viewBox="0 0 238.508 113.167" enable-background="new 0 0 238.508 113.167"
	 xml:space="preserve">
<path display="none" fill="#2F5D54" d="M230.131,65.017v45.15H8.071v-43l0.75-10.75h76.47c0.5,3.61,2.98,5.53,6.03,5.91
	c0.2,0.02,0.41,0.05,0.62,0.06c0.22,0.01,0.44,0.02,0.66,0.02c0.27,0,0.54-0.01,0.8-0.03c4.45-0.32,7.48-2.98,8.92-5.96h105.49
	c2.66,3.5,6.79,5.46,11.6,5.46c4.41,0,7.32-1.15,9.521-2.12L230.131,65.017z"/>
<rect x="-645.694" y="-218.545" display="none" fill="#289984" width="1509.15" height="582.058"/>
<g id="bright">
	<g>
		<g>
			<path fill="#2F5D54" d="M68.111,56.417l-3.04-48.72h-9.79l-9.8,26.61l-0.32,0.86l-0.47,1.29c-1.48,4.21-2.8,8.11-3.93,11.79
				c-0.89,2.85-1.66,5.56-2.31,8.17c-0.01,0.03-0.01,0.05-0.02,0.08h-0.27c-0.01-0.03-0.01-0.05-0.02-0.08
				c-0.54-2.21-1.14-4.46-1.81-6.78c-0.2-0.68-0.4-1.37-0.62-2.07l-0.01-0.03c-0.19-0.65-0.38-1.32-0.6-1.99v-0.01
				c-0.73-2.4-1.53-4.86-2.38-7.43c-0.19-0.55-0.37-1.1-0.56-1.65l-0.52-1.48l-9.63-27.28h-9.79l-3.4,48.72l-0.75,10.75h7.32
				l0.67-10.75l0.93-14.75c0.53-8.91,0.96-18.88,1.14-26.29h0.18c1.67,7.06,4.06,14.73,6.88,23.11l6.09,17.93l3.53,10.4h5.82
				l1.12-3.07l1.82-5.01l0.84-2.32l1.34-3.67l1.43-3.93l0.38-1.04l0.86-2.38v-0.01l0.44-1.18l1.21-3.33l1.06-2.92
				c0.73-2.01,1.44-3.96,2.1-5.88c2.08-5.92,3.87-11.43,5.4-16.7h0.27c-0.07,5.58,0.22,12.61,0.55,19.28
				c0.11,2.19,0.22,4.34,0.33,6.39l0.67,11.67l0.21,3.7l0.62,10.75h7.5L68.111,56.417z"/>
			<path fill="#2F5D54" d="M110.871,56.937v-15.97c0-8.56-3.17-17.47-16.24-17.47c-5.38,0-10.5,1.5-14.02,3.79l1.76,5.12
				c3-1.95,7.15-3.18,11.12-3.18c8.73,0,9.7,6.35,9.7,9.88v0.88c-16.5-0.08-25.67,5.56-25.67,15.89c0,0.18,0,0.36,0.01,0.54
				c0.25,5.98,4.65,11.72,13.05,11.72c6.08,0,10.67-3,13.06-6.35h0.26l0.62,5.38h7.06C111.051,64.256,110.871,60.637,110.871,56.937
				z M93.401,62.376c-0.26,0.02-0.53,0.03-0.8,0.03c-0.22,0-0.44-0.01-0.66-0.02c-0.21-0.01-0.42-0.04-0.62-0.06
				c-3.01-0.42-5.43-2.34-5.93-5.91c-0.08-0.45-0.11-0.93-0.11-1.43c0-8.29,9.62-9.79,18.089-9.61v7.41c0,0.79-0.18,1.68-0.439,2.47
				c-0.13,0.39-0.29,0.78-0.48,1.16C100.991,59.426,97.921,62.097,93.401,62.376z"/>
			<path fill="#2F5D54" d="M142.281,23.497c-5.2,0-9.88,3.61-11.819,9.35h-0.36l-0.26-8.38h-6.79c0.26,3.97,0.35,8.29,0.35,13.32
				v29.38h7.68v-22.76c0-1.32,0.171-2.56,0.351-3.62c1.06-5.82,4.939-9.97,10.41-9.97c1.06,0,1.85,0.09,2.649,0.26v-7.32
				C143.781,23.577,143.171,23.497,142.281,23.497z"/>
			<circle fill="#D04E44" cx="169.153" cy="45.816" r="18.736"/>
			<path fill="#2F5D54" d="M169.461,23.497c-11.82,0-21.181,8.38-21.181,22.67c0,3.85,0.73,7.3,2.04,10.25
				c3.26,7.4,10.17,11.72,18.431,11.72c7.52,0,15.359-3.65,19.06-11.72c1.4-3.02,2.21-6.65,2.21-10.95
				C190.021,32.407,181.731,23.497,169.461,23.497z M169.111,62.316c-4.29,0-7.87-2.25-10.18-5.9c-1.78-2.81-2.8-6.44-2.8-10.51
				c0-8.12,3.979-16.59,13.149-16.59c9.181,0,12.8,9.17,12.8,16.41c0,4.18-1.05,7.87-2.85,10.69
				C176.891,60.086,173.301,62.316,169.111,62.316z"/>
			<path fill="#2F5D54" d="M228.931,59.756c-2.2,0.97-5.11,2.12-9.521,2.12c-4.81,0-8.939-1.96-11.6-5.46
				c-2.04-2.67-3.23-6.23-3.23-10.51c0-8.91,5.29-16.15,15.091-16.15c4.229,0,7.149,0.97,9,2.03l1.76-6
				c-2.12-1.06-6.17-2.21-10.76-2.21c-13.94,0-22.94,9.53-22.94,22.68c0,3.79,0.7,7.21,2.021,10.16
				c3.22,7.23,10.09,11.63,19.239,11.63c5.62,0,10.051-1.35,12.141-2.4c0.04-0.02,0.09-0.04,0.13-0.06l-0.13-0.57L228.931,59.756z"
				/>
		</g>
		<g display="none">
			<path display="inline" fill="#83FEE6" d="M22.011,75.657c-2.05-2.22-5.16-3.34-9.32-3.34h-4.62v26.97h4.05
				c2.19,0,3.89-0.15,5.09-0.46c1.2-0.311,2.27-0.82,3.22-1.55c1.6-1.21,2.78-2.74,3.53-4.58c0.75-1.851,1.13-4.14,1.13-6.88
				C25.091,81.276,24.061,77.887,22.011,75.657z M18.191,92.157c-1.01,1.43-2.46,2.14-4.37,2.14h-0.43v-17.06h0.35
				c2.02,0,3.52,0.7,4.5,2.13c0.98,1.42,1.47,3.6,1.47,6.53C19.711,88.637,19.211,90.716,18.191,92.157z"/>
			<path display="inline" fill="#83FEE6" d="M57.471,82.187c-0.56-0.81-1.54-1.21-2.96-1.21c-1.03,0-1.96,0.25-2.77,0.74
				c-0.82,0.5-1.56,1.25-2.21,2.26v-2.81h-4.66v18.12h5v-10.75c0-1.04,0.15-1.8,0.43-2.25c0.29-0.46,0.75-0.68,1.39-0.68
				c0.59,0,1.01,0.19,1.25,0.58c0.25,0.38,0.37,1.1,0.37,2.13v10.97h4.99v-12.37C58.301,84.557,58.021,82.986,57.471,82.187z"/>
			<path display="inline" fill="#83FEE6" d="M74.371,82.187c-0.55-0.81-1.53-1.21-2.95-1.21c-1.04,0-1.96,0.25-2.78,0.74
				c-0.82,0.5-1.55,1.25-2.21,2.26v-2.81h-4.66v18.12h5.01v-10.75c0-1.04,0.14-1.8,0.43-2.25c0.28-0.46,0.74-0.68,1.38-0.68
				c0.59,0,1.01,0.19,1.26,0.58c0.24,0.38,0.37,1.1,0.37,2.13v10.97h4.98v-12.37C75.201,84.557,74.931,82.986,74.371,82.187z"/>
			<path display="inline" fill="#83FEE6" d="M92.391,91.567v-0.87c0-3.25-0.61-5.71-1.83-7.37c-1.22-1.66-3.03-2.49-5.42-2.49
				c-2.25,0-4.04,0.84-5.37,2.53c-1.33,1.68-1.99,3.98-1.99,6.89c0,2.87,0.66,5.15,1.99,6.84c0.85,1.08,1.9,1.82,3.14,2.2
				c0.68,0.22,1.43,0.33,2.23,0.33c0.82,0,1.59-0.11,2.3-0.33c0.84-0.25,1.59-0.66,2.26-1.21c1.24-1.02,2.05-2.43,2.44-4.25h-4.3
				c-0.25,0.7-0.57,1.23-0.97,1.57c-0.4,0.35-0.88,0.52-1.45,0.52c-0.89,0-1.57-0.359-2.05-1.09c-0.48-0.729-0.72-1.77-0.72-3.13
				v-0.14H92.391z M83.331,85.807c0.46-0.67,1.12-1,1.98-1c0.87,0,1.53,0.32,1.97,0.95c0.43,0.64,0.67,1.61,0.71,2.93l-5.34,0.021
				C82.651,87.437,82.881,86.466,83.331,85.807z"/>
			<path display="inline" fill="#83FEE6" d="M103.211,81.167v11.66c0,0.92-0.131,1.56-0.4,1.899c-0.26,0.341-0.72,0.521-1.37,0.521
				c-0.66,0-1.11-0.17-1.37-0.5s-0.39-0.98-0.39-1.92v-11.66h-4.88v9.39c0,3.63,0.49,6.051,1.46,7.25c0.55,0.7,1.37,1.2,2.44,1.49
				c0.79,0.22,1.709,0.33,2.78,0.33c1.05,0,1.96-0.11,2.74-0.33c1.07-0.29,1.88-0.79,2.439-1.5c0.95-1.2,1.431-3.62,1.431-7.24
				v-9.39H103.211z"/>
			<path display="inline" fill="#83FEE6" d="M117.921,81.727c-0.681,0.59-1.221,1.47-1.63,2.66v-3.22h-4.65v18.12h5v-8.521
				c0-2.2,0.24-3.609,0.72-4.229c0.47-0.63,1.36-0.93,2.681-0.93h0.34v-4.77C119.411,80.847,118.601,81.146,117.921,81.727z"/>
			<path display="inline" fill="#83FEE6" d="M40.321,83.236c-1.37-1.7-3.22-2.55-5.54-2.55c-2.31,0-4.16,0.85-5.52,2.55
				c-1.38,1.69-2.06,3.99-2.06,6.871c0,2.92,0.68,5.229,2.06,6.93c0.9,1.12,2.01,1.88,3.34,2.26c0.67,0.2,1.4,0.29,2.18,0.29
				c0.78,0,1.51-0.09,2.18-0.29c1.32-0.38,2.44-1.14,3.35-2.27c1.38-1.71,2.07-4.021,2.07-6.92
				C42.381,87.236,41.701,84.946,40.321,83.236z M36.861,93.857c-0.49,0.88-1.19,1.329-2.08,1.329c-0.89,0-1.57-0.439-2.06-1.319
				c-0.48-0.88-0.72-2.15-0.72-3.79c0-1.64,0.24-2.9,0.72-3.78c0.49-0.88,1.17-1.32,2.06-1.32c0.89,0,1.59,0.45,2.08,1.33
				c0.49,0.89,0.73,2.14,0.73,3.77C37.591,91.707,37.351,92.966,36.861,93.857z"/>
		</g>
	</g>
	<g display="none">
		<path display="inline" fill="#D04E44" d="M62.831,40.917c-0.28-2.5-1.55-4.68-3.38-6.26c-1.7-1.47-3.89-2.41-6.22-2.58
			c-1.89-0.14-3.87,0.22-5.75,1.23c-0.04,0.02-0.07,0.04-0.1,0.06c-0.04,0.02-0.07,0.04-0.11,0.06c-0.03,0.02-0.07,0.04-0.1,0.06
			c-0.03,0.02-0.07,0.04-0.1,0.06c-0.07,0.04-0.14,0.09-0.21,0.14c-0.03,0.02-0.06,0.05-0.1,0.07c-0.02,0.02-0.04,0.03-0.07,0.05
			c-0.02,0.02-0.05,0.04-0.07,0.06c-0.05,0.03-0.1,0.07-0.15,0.11c-0.02,0.02-0.05,0.04-0.07,0.06c-0.05,0.04-0.1,0.07-0.14,0.11
			c-0.05,0.04-0.09,0.08-0.14,0.12c-0.04,0.03-0.08,0.07-0.12,0.1c-0.05,0.05-0.11,0.1-0.16,0.14c-0.01,0.01-0.02,0.02-0.03,0.03
			l-0.01,0.01c0,0.01-0.01,0.01-0.01,0.01s0,0,0,0.01c-0.02,0.01-0.03,0.02-0.04,0.03c-0.19,0.18-0.39,0.37-0.59,0.57
			c-1.09,1.14-2.15,2.58-2.93,4.02c-0.5,0.91-0.89,1.82-1.11,2.64c-0.29,1.1-0.47,2.2-0.51,3.37c0.11,0.08,0.21,0.17,0.28,0.29
			c0.12,0.19,0.13,0.46-0.02,0.61c-0.07,0.07-0.17,0.11-0.27,0.12c0.02,0.65,0.07,1.32,0.16,2.03c0.29,2.24,0.97,4.85,2.06,8.17
			c0.07,0.18,0.13,0.36,0.19,0.55c0.19,0.57,0.38,1.17,0.56,1.77c1.21,4.04,2.07,8.53,2.13,9.72c0.02-0.02,0.03-0.04,0.05-0.07
			c0.23-0.33,0.62-0.84,1.15-1.47c0.03-0.04,0.07-0.08,0.1-0.12c0.01-0.01,0.02-0.01,0.02-0.03c0.06-0.07,0.12-0.14,0.19-0.21
			c0.01-0.01,0.01-0.02,0.02-0.03c0.08-0.09,0.15-0.17,0.23-0.26c0.06-0.08,0.13-0.15,0.19-0.23c0.04-0.05,0.08-0.09,0.12-0.14
			c0.2-0.23,0.41-0.46,0.63-0.71c0.04-0.04,0.09-0.09,0.13-0.14c0.09-0.1,0.18-0.2,0.27-0.3c0.13-0.15,0.27-0.3,0.41-0.45
			c0.1-0.1,0.19-0.21,0.29-0.31c0.1-0.1,0.19-0.21,0.29-0.31c0.64-0.68,1.31-1.37,1.99-2.04c0.07-0.07,0.14-0.13,0.21-0.2
			c0.2-0.19,0.4-0.38,0.6-0.57c0.1-0.1,0.2-0.2,0.31-0.29c0,0,0,0,0-0.01c0.12-0.11,0.24-0.22,0.37-0.33
			c0.06-0.06,0.12-0.11,0.18-0.17c0.04-0.03,0.08-0.07,0.12-0.1c0.04-0.04,0.08-0.07,0.12-0.11c0.25-0.22,0.49-0.44,0.73-0.66
			c0.08-0.07,0.16-0.14,0.23-0.21c1-0.91,1.89-1.76,2.67-2.57c0.06-0.05,0.11-0.11,0.16-0.16c-0.65-0.5-1.33-1.02-2.14-1.16
			c-0.82-0.15-1.66,0.11-2.5,0.07c-0.77-0.04-1.52-0.35-2.3-0.3c-0.53,0.03-1.04,0.23-1.52,0.47c-0.19,0.1-0.38,0.2-0.57,0.31
			c-0.28-0.19-0.43-0.59-0.33-0.91c0.1-0.32,0.36-0.57,0.66-0.72c0.23-0.13,0.48-0.2,0.74-0.27c0.07-0.02,0.14-0.03,0.21-0.05
			c0.38-0.09,0.71-0.23,1.09-0.33c0.38-0.1,0.78-0.33,0.86-0.71c0.06-0.24-0.02-0.5-0.17-0.7c-0.15-0.2-0.35-0.36-0.54-0.51
			c-0.23-0.18-0.47-0.35-0.7-0.52c-0.44-0.32-0.89-0.64-1.34-0.95c-0.17-0.12-0.35-0.24-0.52-0.35c-0.31-0.21-0.63-0.42-0.94-0.62
			c-0.1-0.06-0.19-0.13-0.29-0.19c-0.22-0.14-0.45-0.28-0.67-0.42c-0.19-0.12-0.38-0.24-0.5-0.42c-0.12-0.18-0.14-0.45,0.01-0.61
			c0.11-0.12,0.29-0.15,0.45-0.12c0.16,0.02,0.31,0.1,0.45,0.18l0.64,0.35l3.02,1.64l0.1,0.05c0.21,0.11,0.46-0.05,0.44-0.28
			c-0.01-0.19-0.14-0.35-0.26-0.49c-0.05-0.05-0.09-0.11-0.14-0.16c-0.83-1-1.6-2.05-2.3-3.14v-0.01c-0.05-0.08-0.1-0.15-0.15-0.23
			c-0.11-0.18-0.23-0.36-0.26-0.58c-0.02-0.21,0.06-0.45,0.26-0.53c0.16-0.07,0.34-0.03,0.49,0.07c0.04,0.03,0.07,0.05,0.1,0.09
			c0.03,0.02,0.05,0.05,0.08,0.08c0.06,0.06,0.11,0.13,0.16,0.2c0.51,0.69,1.15,1.48,1.8,2.24c0.45,0.52,0.9,1.02,1.31,1.44
			c0.08,0.08,0.21-0.01,0.16-0.11l-1.45-2.7l-0.55-1.01c-0.06-0.12-0.09-0.25-0.08-0.38c0.03-0.32,0.26-0.41,0.48-0.36
			c0.04,0.01,0.09,0.02,0.14,0.04c0.15,0.08,0.26,0.21,0.36,0.35c0.88,1.13,1.46,2.53,2.48,3.5c0.13,0.12,0.33,0.01,0.3-0.17
			l-0.55-2.83c-0.02-0.14-0.01-0.27,0.04-0.39c0.19-0.41,0.63-0.26,0.8,0.01c0.14,0.2,0.16,0.45,0.2,0.69
			c0.18,1.21,0.71,2.34,1.32,3.4c0.6,1.06,1,2.26,1.81,3.17c0.4,0.45,1.26,1.1,2.4,1.87c0.09-0.12,0.18-0.24,0.26-0.36
			c0.04-0.06,0.08-0.11,0.12-0.17c0.04-0.06,0.08-0.11,0.12-0.17c0.04-0.06,0.08-0.12,0.12-0.18c0.04-0.06,0.07-0.11,0.11-0.17
			c0.09-0.15,0.18-0.29,0.27-0.44c0.02-0.02,0.04-0.05,0.05-0.08c0.04-0.07,0.09-0.14,0.12-0.21c0.03-0.04,0.05-0.08,0.08-0.13
			c0.04-0.07,0.08-0.14,0.12-0.21c0.03-0.06,0.06-0.11,0.09-0.17c0.03-0.05,0.05-0.1,0.07-0.15c0.04-0.05,0.06-0.11,0.09-0.17
			c0.03-0.05,0.06-0.11,0.09-0.17c0.03-0.06,0.05-0.12,0.08-0.17c0.02-0.03,0.03-0.06,0.04-0.09l0.04-0.09
			c0.03-0.05,0.05-0.11,0.08-0.17c0.02-0.05,0.05-0.11,0.07-0.16c0.22-0.52,0.41-1.05,0.58-1.59c0.01-0.07,0.03-0.13,0.05-0.19
			c0.04-0.12,0.07-0.24,0.1-0.37c0.23-0.85,0.34-1.87,0.35-2.95C63.181,43.457,63.061,42.146,62.831,40.917z"/>
		<path display="inline" fill="#D04E44" d="M48.015,44.581c0.027,0.211,0.142,0.398,0.255,0.578
			c0.742,1.177,1.563,2.304,2.452,3.375c-0.041,0.287-0.088,0.58-0.142,0.88l-3.66-1.987c-0.143-0.078-0.29-0.157-0.45-0.183
			c-0.161-0.028-0.341,0.005-0.451,0.125c-0.149,0.16-0.125,0.425-0.005,0.608c0.118,0.183,0.312,0.303,0.497,0.418
			c1.282,0.798,2.541,1.636,3.758,2.53c-0.201,0.879-0.452,1.816-0.753,2.825c-0.254,0.064-0.507,0.139-0.737,0.263
			c-0.296,0.158-0.559,0.407-0.659,0.726c-0.103,0.319,0.053,0.718,0.331,0.906c0.188-0.104,0.377-0.208,0.57-0.304
			c-0.178,0.547-0.368,1.116-0.571,1.706c-1.379,3.988-2.453,9.069-2.7,10.994c-0.021,0.162-0.037,0.301-0.045,0.415
			c-0.738-1.157-4.52-5.596-7.976-8.696c-5.689-5.104-8.05-8.294-9.071-12.265c-0.212-0.827-0.317-1.81-0.328-2.852
			c-0.013-1.194,0.098-2.464,0.313-3.658c0.313,0.268,0.557,0.503,0.72,0.7c0.78,0.937,1.137,2.156,1.703,3.237
			c0.567,1.081,1.058,2.225,1.198,3.436c0.027,0.242,0.044,0.495,0.17,0.704c0.167,0.276,0.6,0.436,0.801,0.037
			c0.06-0.119,0.074-0.255,0.054-0.386l-0.448-2.857c-0.027-0.173,0.185-0.281,0.308-0.157c0.988,1.01,1.511,2.431,2.354,3.589
			c0.099,0.136,0.206,0.272,0.354,0.355c0.229,0.128,0.578,0.095,0.625-0.294c0.016-0.131-0.012-0.263-0.067-0.383l-1.866-3.772
			c-0.047-0.102,0.086-0.189,0.16-0.107c0.966,1.067,2.159,2.597,2.979,3.781c0.099,0.14,0.197,0.285,0.335,0.388
			c0.139,0.102,0.325,0.154,0.484,0.089c0.197-0.081,0.292-0.317,0.271-0.528c-0.019-0.211-0.126-0.403-0.233-0.587
			c-0.736-1.263-1.56-2.475-2.462-3.625c-0.116-0.148-0.239-0.308-0.247-0.498c-0.01-0.234,0.249-0.386,0.452-0.266l3.686,2.17
			c0.14,0.082,0.283,0.166,0.443,0.199c0.061,0.012,0.125,0.016,0.187,0.008c0.102-0.01,0.198-0.047,0.269-0.119
			c0.154-0.155,0.14-0.42,0.026-0.608c-0.071-0.12-0.175-0.215-0.286-0.299c-0.063-0.048-0.13-0.093-0.196-0.137
			c-1.495-1.004-2.954-2.063-4.347-3.206c-0.193-0.158-0.387-0.321-0.525-0.528c-0.139-0.207-0.217-0.468-0.151-0.709
			c0.102-0.377,0.507-0.587,0.889-0.674c0.381-0.087,0.72-0.218,1.103-0.294c0.328-0.067,0.661-0.135,0.963-0.282
			c0.301-0.148,0.571-0.387,0.684-0.703c0.113-0.315-0.028-0.719-0.299-0.916c-0.671,0.339-1.369,0.686-2.12,0.705
			c-0.775,0.021-1.518-0.311-2.29-0.377c-0.831-0.073-1.682,0.16-2.497-0.017c-0.695-0.15-1.285-0.579-1.844-1.03
			c0.016-0.026,0.031-0.051,0.047-0.076c3.674-5.745,11.361-6.316,15.764-2.388c0,0,0,0,0,0c0.496,0.441,0.949,0.94,1.352,1.496
			c0.799,0.955,1.546,2.042,2.14,3.126c0.52,0.944,0.922,1.888,1.145,2.738c0.146,0.558,0.261,1.116,0.343,1.683
			c-0.212-0.042-0.446,0.046-0.474,0.364c-0.012,0.131,0.021,0.262,0.08,0.38l0.547,1.014c0.014,0.442,0.008,0.895-0.017,1.36
			c-0.648-0.751-1.29-1.55-1.798-2.231c-0.103-0.137-0.207-0.278-0.349-0.375c-0.142-0.098-0.33-0.143-0.487-0.073
			C48.076,44.13,47.99,44.37,48.015,44.581z"/>
		<path display="inline" opacity="0.1" fill="#2D2827" d="M62.831,40.917c-0.28-2.5-1.55-4.68-3.38-6.26
			c-1.7-1.47-3.89-2.41-6.22-2.58c-1.89-0.14-3.87,0.22-5.75,1.23c-0.04,0.02-0.07,0.04-0.1,0.06c-0.04,0.02-0.07,0.04-0.11,0.06
			c-0.03,0.02-0.07,0.04-0.1,0.06c-0.03,0.02-0.07,0.04-0.1,0.06c-0.07,0.04-0.14,0.09-0.21,0.14c-0.03,0.02-0.06,0.05-0.1,0.07
			c-0.02,0.02-0.04,0.03-0.07,0.05c-0.02,0.02-0.05,0.04-0.07,0.06c-0.05,0.03-0.1,0.07-0.15,0.11c-0.02,0.02-0.05,0.04-0.07,0.06
			c-0.05,0.04-0.1,0.07-0.14,0.11c-0.05,0.04-0.09,0.08-0.14,0.12c-0.04,0.03-0.08,0.07-0.12,0.1c-0.05,0.05-0.11,0.1-0.16,0.14
			c-0.01,0.01-0.02,0.02-0.03,0.03l-0.01,0.01c0,0.01-0.01,0.01-0.01,0.01s0,0,0,0.01l-0.04-0.04v33.86
			c0.23-0.33,0.62-0.84,1.15-1.47c0.03-0.04,0.07-0.08,0.1-0.12c0.01-0.01,0.02-0.01,0.02-0.03c0.06-0.07,0.12-0.14,0.19-0.21
			c0.01-0.01,0.01-0.02,0.02-0.03c0.08-0.09,0.15-0.17,0.23-0.26c0.06-0.08,0.13-0.15,0.19-0.23c0.04-0.05,0.08-0.09,0.12-0.14
			c0.2-0.23,0.41-0.46,0.63-0.71c0.04-0.04,0.09-0.09,0.13-0.14c0.09-0.1,0.18-0.2,0.27-0.3c0.13-0.15,0.27-0.3,0.41-0.45
			c0.1-0.1,0.19-0.21,0.29-0.31c0.1-0.1,0.19-0.21,0.29-0.31c0.64-0.68,1.31-1.37,1.99-2.04c0.07-0.07,0.14-0.13,0.21-0.2
			c0.2-0.19,0.4-0.38,0.6-0.57c0.1-0.1,0.2-0.2,0.31-0.29c0,0,0,0,0-0.01c0.12-0.11,0.24-0.22,0.37-0.33
			c0.06-0.06,0.12-0.11,0.18-0.17c0.04-0.03,0.08-0.07,0.12-0.1c0.04-0.04,0.08-0.07,0.12-0.11c0.25-0.22,0.49-0.44,0.73-0.66
			c0.08-0.07,0.16-0.14,0.23-0.21c1-0.91,1.89-1.76,2.67-2.57c0.06-0.05,0.11-0.11,0.16-0.16c-0.65-0.5-1.33-1.02-2.14-1.16
			c-0.82-0.15-1.66,0.11-2.5,0.07c-0.77-0.04-1.52-0.35-2.3-0.3c-0.53,0.03-1.04,0.23-1.52,0.47c-0.19,0.1-0.38,0.2-0.57,0.31
			c-0.28-0.19-0.43-0.59-0.33-0.91c0.1-0.32,0.36-0.57,0.66-0.72c0.23-0.13,0.48-0.2,0.74-0.27c0.07-0.02,0.14-0.03,0.21-0.05
			c0.38-0.09,0.71-0.23,1.09-0.33c0.38-0.1,0.78-0.33,0.86-0.71c0.06-0.24-0.02-0.5-0.17-0.7c-0.15-0.2-0.35-0.36-0.54-0.51
			c-0.23-0.18-0.47-0.35-0.7-0.52c-0.44-0.32-0.89-0.64-1.34-0.95c-0.17-0.12-0.35-0.24-0.52-0.35c-0.31-0.21-0.63-0.42-0.94-0.62
			c-0.1-0.06-0.19-0.13-0.29-0.19c-0.22-0.14-0.45-0.28-0.67-0.42c-0.19-0.12-0.38-0.24-0.5-0.42c-0.12-0.18-0.14-0.45,0.01-0.61
			c0.11-0.12,0.29-0.15,0.45-0.12c0.16,0.02,0.31,0.1,0.45,0.18l0.64,0.35l3.02,1.64l0.1,0.05c0.21,0.11,0.46-0.05,0.44-0.28
			c-0.01-0.19-0.14-0.35-0.26-0.49c-0.05-0.05-0.09-0.11-0.14-0.16c-0.83-1-1.6-2.05-2.3-3.14v-0.01c-0.05-0.08-0.1-0.15-0.15-0.23
			c-0.11-0.18-0.23-0.36-0.26-0.58c-0.02-0.21,0.06-0.45,0.26-0.53c0.16-0.07,0.34-0.03,0.49,0.07c0.04,0.03,0.07,0.05,0.1,0.09
			c0.03,0.02,0.05,0.05,0.08,0.08c0.06,0.06,0.11,0.13,0.16,0.2c0.51,0.69,1.15,1.48,1.8,2.24c0.45,0.52,0.9,1.02,1.31,1.44
			c0.08,0.08,0.21-0.01,0.16-0.11l-1.45-2.7l-0.55-1.01c-0.06-0.12-0.09-0.25-0.08-0.38c0.03-0.32,0.26-0.41,0.48-0.36
			c0.04,0.01,0.09,0.02,0.14,0.04c0.15,0.08,0.26,0.21,0.36,0.35c0.88,1.13,1.46,2.53,2.48,3.5c0.13,0.12,0.33,0.01,0.3-0.17
			l-0.55-2.83c-0.02-0.14-0.01-0.27,0.04-0.39c0.19-0.41,0.63-0.26,0.8,0.01c0.14,0.2,0.16,0.45,0.2,0.69
			c0.18,1.21,0.71,2.34,1.32,3.4c0.6,1.06,1,2.26,1.81,3.17c0.4,0.45,1.26,1.1,2.4,1.87c0.09-0.12,0.18-0.24,0.26-0.36
			c0.04-0.06,0.08-0.11,0.12-0.17c0.04-0.06,0.08-0.11,0.12-0.17c0.04-0.06,0.08-0.12,0.12-0.18c0.04-0.06,0.07-0.11,0.11-0.17
			c0.09-0.15,0.18-0.29,0.27-0.44c0.02-0.02,0.04-0.05,0.05-0.08c0.04-0.07,0.09-0.14,0.12-0.21c0.03-0.04,0.05-0.08,0.08-0.13
			c0.04-0.07,0.08-0.14,0.12-0.21c0.03-0.06,0.06-0.11,0.09-0.17c0.03-0.05,0.05-0.1,0.07-0.15c0.04-0.05,0.06-0.11,0.09-0.17
			c0.03-0.05,0.06-0.11,0.09-0.17c0.03-0.06,0.05-0.12,0.08-0.17c0.02-0.03,0.03-0.06,0.04-0.09l0.04-0.09
			c0.03-0.05,0.05-0.11,0.08-0.17c0.02-0.05,0.05-0.11,0.07-0.16c0.22-0.52,0.41-1.05,0.58-1.59c0.01-0.07,0.03-0.13,0.05-0.19
			c0.04-0.12,0.07-0.24,0.1-0.37c0.23-0.85,0.34-1.87,0.35-2.95C63.181,43.457,63.061,42.146,62.831,40.917z"/>
	</g>
</g>
<g id="default_1_" display="none">
	<g display="inline">
		<g>
			<path fill="#9AD6D0" d="M178.731-168.383h-37.21l-40.22,109.28c-10.06,28.5-18.11,53.31-23.8,76.1h-1.01
				c-5.7-23.47-13.41-48.27-22.8-76.1l-38.55-109.28h-37.2l-15.76,225.94h27.82l6.04-96.88c2.01-33.85,3.68-71.73,4.35-99.89h0.67
				c6.37,26.82,15.43,55.98,26.15,87.82l36.54,107.61h22.13l39.89-109.62c11.39-31.17,20.78-59.33,28.49-85.81h1.01
				c-0.34,28.16,1.67,66.04,3.35,97.55l5.7,99.22h28.49L178.731-168.383z"/>
			<path fill="#9AD6D0" d="M352.711,18.676v-60.68c0-32.52-12.07-66.37-61.681-66.37c-20.45,0-39.899,5.7-53.3,14.41l6.7,19.44
				c11.399-7.37,27.149-12.06,42.24-12.06c33.18,0,36.87,24.13,36.87,37.54v3.35c-62.681-0.33-97.551,21.12-97.551,60.34
				c0,23.47,16.761,46.6,49.62,46.6c23.13,0,40.561-11.4,49.61-24.14h1l2.35,20.45h26.82
				C353.381,46.497,352.711,32.756,352.711,18.676z M324.211,2.917c0,3.02-0.67,6.37-1.67,9.39c-4.7,13.74-18.11,27.15-39.221,27.15
				c-15.09,0-27.83-9.05-27.83-28.16c0-31.51,36.54-37.21,68.721-36.54V2.917z"/>
			<path fill="#9AD6D0" d="M472.042-108.374c-19.771,0-37.54,13.74-44.921,35.53h-1.34l-1-31.84h-25.81
				c1,15.08,1.34,31.51,1.34,50.61v111.63h29.16v-86.49c0-5.02,0.67-9.72,1.34-13.74c4.02-22.12,18.77-37.88,39.56-37.88
				c4.021,0,7.04,0.34,10.051,1.01v-27.83C477.741-108.043,475.401-108.374,472.042-108.374z"/>
			<path fill="#9AD6D0" d="M575.292-108.374c-44.921,0-80.45,31.84-80.45,86.15c0,51.29,33.859,83.47,77.77,83.47
				c39.22,0,80.79-26.15,80.79-86.15C653.401-74.523,621.891-108.374,575.292-108.374z M573.951,39.117
				c-28.83,0-49.279-26.81-49.279-62.35c0-30.84,15.09-63.02,49.949-63.02c34.86,0,48.61,34.86,48.61,62.35
				C623.231,12.637,602.111,39.117,573.951,39.117z"/>
			<path fill="#9AD6D0" d="M765.031,37.446c-32.18,0-56.319-23.13-56.319-60.68c0-33.85,20.109-61.34,57.319-61.34
				c16.09,0,27.16,3.69,34.2,7.71l6.7-22.8c-8.05-4.02-23.47-8.38-40.9-8.38c-52.96,0-87.149,36.21-87.149,86.15
				c0,49.62,31.84,82.8,80.779,82.8c21.79,0,38.891-5.36,46.601-9.38l-5.03-22.13C792.851,33.086,781.792,37.446,765.031,37.446z"/>
		</g>
		<g>
			<path fill="#57C0AC" d="M-411.839,15.816c-25.6-27.82-64.38-41.74-116.34-41.74h-57.65v336.68h50.5
				c27.37,0,48.54-1.92,63.53-5.76c14.99-3.84,28.4-10.3,40.24-19.37c19.99-15.07,34.67-34.13,44.05-57.19
				c9.38-23.06,14.07-51.659,14.07-85.789C-373.439,85.917-386.239,43.646-411.839,15.816z M-459.459,221.636
				c-12.61,17.91-30.82,26.86-54.65,26.86h-5.31V35.417h4.39c25.21,0,43.93,8.88,56.15,26.64c12.22,17.75,18.33,44.93,18.33,81.52
				C-440.549,177.707-446.859,203.726-459.459,221.636z"/>
			<path fill="#57C0AC" d="M30.801,97.216c-6.91-9.99-19.21-14.99-36.89-14.99c-12.92,0-24.49,3.08-34.71,9.23
				c-10.22,6.15-19.41,15.53-27.56,28.13v-35.05h-58.11v226.22h62.5v-134.21c0-13.06,1.76-22.439,5.3-28.13s9.3-8.53,17.3-8.53
				c7.37,0,12.6,2.42,15.68,7.261c3.07,4.84,4.61,13.72,4.61,26.64v136.97h62.26v-154.5
				C41.181,126.897,37.721,107.216,30.801,97.216z"/>
			<path fill="#57C0AC" d="M241.811,97.216c-6.92-9.99-19.22-14.99-36.9-14.99c-12.909,0-24.479,3.08-34.71,9.23
				c-10.22,6.15-19.409,15.53-27.55,28.13v-35.05h-58.11v226.22h62.49v-134.21c0-13.06,1.761-22.439,5.3-28.13
				c3.54-5.69,9.301-8.53,17.301-8.53c7.38,0,12.6,2.42,15.68,7.261c3.07,4.84,4.61,13.72,4.61,26.64v136.97h62.26v-154.5
				C252.181,126.897,248.731,107.216,241.811,97.216z"/>
			<path fill="#57C0AC" d="M466.651,214.367v-10.84c0-40.58-7.609-71.25-22.83-92.011c-15.22-20.75-37.75-31.129-67.569-31.129
				c-28.131,0-50.5,10.53-67.11,31.589c-16.6,21.07-24.9,49.74-24.9,86.021c0,35.82,8.301,64.26,24.9,85.32
				c16.61,21.069,38.979,31.59,67.11,31.59c22.439,0,41.39-6.37,56.84-19.141c15.45-12.75,25.64-30.43,30.56-53.029h-53.729
				c-3.08,8.76-7.12,15.3-12.11,19.6c-5,4.3-11.03,6.45-18.1,6.45c-11.07,0-19.601-4.53-25.601-13.601
				c-5.99-9.069-8.99-22.06-8.99-38.97v-1.85H466.651z M353.651,142.417c5.69-8.3,13.91-12.45,24.67-12.45
				c10.92,0,19.11,3.96,24.561,11.88c5.46,7.92,8.42,20.101,8.88,36.551l-66.641,0.229
				C345.121,162.787,347.961,150.716,353.651,142.417z"/>
			<path fill="#57C0AC" d="M601.781,84.537v145.51c0,11.53-1.649,19.45-4.96,23.75c-3.31,4.311-9.029,6.46-17.18,6.46
				s-13.83-2.07-17.061-6.22c-3.229-4.16-4.85-12.15-4.85-23.99V84.537h-60.88v117.149c0,45.351,6.04,75.561,18.11,90.631
				c12.06,15.06,33.779,22.59,65.14,22.59c31.21,0,52.77-7.57,64.69-22.71c11.909-15.141,17.869-45.311,17.869-90.511V84.537
				H601.781z"/>
			<path fill="#57C0AC" d="M785.341,91.577c-8.46,7.3-15.221,18.33-20.29,33.09v-40.13h-58.11v226.22h62.49v-106.3
				c0-27.521,2.96-45.16,8.88-52.93c5.91-7.761,17.1-11.641,33.55-11.641h4.15v-59.5C804.021,80.546,793.792,84.267,785.341,91.577z
				"/>
			<g>
				<ellipse fill="#E64C3C" cx="-253.439" cy="199.667" rx="51.5" ry="72"/>
				<path fill="#57C0AC" d="M-184.579,112.096c-17.06-21.14-39.97-31.709-68.72-31.709s-51.62,10.53-68.6,31.589
					c-16.99,21.07-25.49,49.511-25.49,85.33c0,36.13,8.5,64.761,25.49,85.9c16.98,21.14,39.85,31.7,68.6,31.7
					c28.6,0,51.46-10.601,68.61-31.82c17.14-21.21,25.71-49.81,25.71-85.78C-158.979,161.636-167.509,133.237-184.579,112.096z
					 M-216.829,226.846c-2.31,9.23-7.23,19.23-12.22,23.84c-18.96,17.5-48.74,9.631-57.06-11.84c-1.81-3.84-3.33-8.06-4.35-12.14
					c-0.88-3.55-1.4-7-1.39-9.99c0.01-6.649,1.18-12.979,3.96-20.12c0.02-20.18,3.02-35.699,8.99-46.569
					c5.97-10.851,14.44-16.311,25.43-16.37h0.17c11.07,0,19.64,5.5,25.71,16.49c6.07,10.989,9.11,26.56,9.11,46.699
					c0,0.79,0,1.57-0.02,2.351c2.18,6.29,3.08,12.01,3.05,17.979C-215.459,220.086-215.959,223.407-216.829,226.846z"/>
				<path fill="#57C0AC" d="M-253.109,122.667c-25.4,0-46,34.03-46,76s20.6,76,46,76c25.41,0,46-34.03,46-76
					S-227.699,122.667-253.109,122.667z M-229.049,250.686c-18.96,17.5-48.74,9.631-57.06-11.84c-1.81-3.84-3.33-8.06-4.35-12.14
					c-0.88-3.55-1.4-7-1.39-9.99c0.01-6.649,1.18-12.979,3.96-20.12c3.05-7.819,8.04-16.63,15.59-27.93
					c8.56-12.79,17.05-30.03,18.83-35.01h0.1c1.57,4.689,10.08,22.3,18.68,35.35c8.17,12.4,13.31,21.811,16.19,30.19
					c2.18,6.29,3.08,12.01,3.05,17.979c-0.01,2.91-0.51,6.23-1.38,9.67C-219.139,236.077-224.059,246.077-229.049,250.686z"/>
			</g>
		</g>
	</g>
	<g display="inline">
		<path fill="#E64C3C" d="M-143.015-111.236c-4.985-43.382-55.834-72.081-98.998-49.066c-0.219,0.117-0.437,0.235-0.655,0.36
			c-0.218,0.122-0.44,0.247-0.659,0.38c-0.235,0.137-0.465,0.274-0.699,0.42c-0.198,0.121-0.4,0.25-0.599,0.376
			c-0.448,0.291-0.897,0.59-1.35,0.905c-0.214,0.149-0.429,0.299-0.647,0.453c-0.153,0.113-0.312,0.226-0.469,0.344
			c-0.158,0.113-0.315,0.23-0.473,0.347c-0.315,0.239-0.631,0.481-0.946,0.728c-0.162,0.125-0.319,0.25-0.478,0.375
			c-0.295,0.239-0.594,0.481-0.893,0.728c-0.299,0.247-0.599,0.498-0.897,0.756c-0.25,0.214-0.501,0.433-0.756,0.651
			c-0.347,0.308-0.695,0.619-1.046,0.938c-0.057,0.052-0.114,0.105-0.17,0.158c-0.028,0.024-0.056,0.048-0.084,0.077
			c-0.033,0.024-0.061,0.048-0.089,0.077c-0.004,0.004-0.004,0.008-0.004,0.008c-0.081,0.072-0.162,0.145-0.243,0.222
			c-8.344,7.757-16.725,18.705-22.679,29.568c-3.23,5.89-5.749,11.748-7.164,17.064c-1.888,7.087-3.008,14.166-3.299,21.685
			c0.724,0.542,1.387,1.156,1.848,1.924c0.732,1.209,0.825,2.919-0.169,3.917c-0.457,0.461-1.075,0.704-1.727,0.768
			c0.429,18.103,5.385,39.303,15.564,69.292c9.629,28.348,16.846,65.233,17.339,74.075c0.089-0.133,0.186-0.275,0.287-0.424
			c1.464-2.119,4.039-5.413,7.422-9.468c0.21-0.255,0.424-0.509,0.643-0.769c0.053-0.064,0.105-0.125,0.158-0.19
			c0.384-0.456,0.78-0.921,1.184-1.398c0.053-0.065,0.109-0.13,0.162-0.194c0.469-0.549,0.95-1.112,1.443-1.686
			c0.42-0.486,0.845-0.979,1.281-1.48c0.247-0.291,0.506-0.582,0.764-0.877c1.281-1.468,2.627-2.992,4.03-4.556
			c0.275-0.311,0.558-0.626,0.846-0.942c0.569-0.631,1.144-1.27,1.729-1.912c0.877-0.967,1.771-1.94,2.681-2.927
			c0.606-0.655,1.221-1.318,1.839-1.981c0.614-0.663,1.241-1.329,1.876-2c4.107-4.354,8.449-8.81,12.859-13.139
			c0.449-0.441,0.898-0.877,1.346-1.314c1.274-1.241,2.555-2.465,3.833-3.675c0.663-0.626,1.322-1.245,1.985-1.859
			c0.016-0.017,0.028-0.029,0.044-0.041c0.78-0.728,1.564-1.448,2.341-2.155c0.393-0.359,0.78-0.711,1.168-1.059
			c0.259-0.238,0.517-0.469,0.776-0.7c0.258-0.23,0.518-0.461,0.776-0.691c1.621-1.439,3.198-2.854,4.738-4.249
			c0.498-0.449,0.991-0.897,1.479-1.343c6.881-6.274,12.933-12.096,18.249-17.61c-4.212-3.218-8.594-6.574-13.801-7.511
			c-5.3-0.954-10.726,0.736-16.099,0.453c-4.992-0.263-9.852-2.227-14.84-1.92c-3.457,0.214-6.703,1.496-9.82,3.064
			c-1.245,0.623-2.47,1.293-3.678,1.961c-1.791-1.209-2.794-3.78-2.135-5.838c0.655-2.058,2.345-3.662,4.249-4.681
			c1.492-0.792,3.117-1.282,4.759-1.69c0.456-0.121,0.917-0.23,1.378-0.339c2.454-0.583,4.605-1.5,7.043-2.147
			c2.438-0.646,5.001-2.086,5.57-4.543c0.364-1.565-0.194-3.23-1.136-4.537c-0.938-1.302-2.224-2.308-3.501-3.283
			c-1.487-1.135-2.987-2.26-4.499-3.363c-7.847-5.769-15.96-11.17-24.231-16.312c-1.197-0.744-2.438-1.521-3.207-2.701
			c-0.772-1.181-0.926-2.886,0.033-3.921c0.715-0.768,1.875-0.986,2.911-0.809c1.035,0.174,1.981,0.683,2.903,1.185l23.597,12.811
			l0.635,0.344c1.337,0.724,2.967-0.307,2.854-1.823c-0.093-1.221-0.917-2.223-1.702-3.149c-0.292-0.348-0.583-0.695-0.874-1.043
			c-5.736-6.901-11.02-14.174-15.807-21.758c-0.731-1.16-1.472-2.369-1.641-3.727s0.388-2.906,1.633-3.469
			c1.011-0.453,2.228-0.157,3.141,0.469c0.914,0.622,1.584,1.532,2.244,2.417c3.274,4.395,7.418,9.541,11.595,14.384
			c2.894,3.359,5.805,6.578,8.449,9.306c0.501,0.518,1.338-0.081,1.011-0.724l-9.351-17.351l-3.525-6.541
			c-0.384-0.756-0.59-1.601-0.518-2.446c0.174-2.054,1.689-2.627,3.056-2.353c0.315,0.061,0.619,0.17,0.902,0.315
			c0.966,0.497,1.694,1.351,2.361,2.207c5.688,7.277,9.371,16.312,15.973,22.595c0.816,0.78,2.159,0.032,1.944-1.08l-3.533-18.305
			c-0.162-0.841-0.093-1.718,0.263-2.494c1.205-2.616,4.035-1.69,5.167,0.056c0.857,1.314,1.023,2.944,1.257,4.492
			c1.172,7.778,4.593,15.039,8.485,21.871c3.894,6.836,6.465,14.614,11.704,20.48c2.583,2.895,8.114,7.103,15.459,12.047
			c0.583-0.78,1.144-1.556,1.69-2.333c0.255-0.36,0.509-0.72,0.756-1.08c0.262-0.375,0.521-0.752,0.776-1.128
			c0.255-0.375,0.505-0.752,0.756-1.128c0.246-0.372,0.493-0.748,0.731-1.12c0.607-0.934,1.189-1.868,1.751-2.797
			c0.113-0.186,0.222-0.372,0.335-0.558c0.267-0.441,0.529-0.885,0.78-1.33c0.162-0.275,0.324-0.554,0.477-0.829
			c0.271-0.469,0.53-0.938,0.781-1.403c0.194-0.352,0.384-0.699,0.57-1.051c0.008-0.013,0.016-0.029,0.021-0.041
			c0.161-0.304,0.319-0.607,0.477-0.914c0.194-0.368,0.384-0.74,0.57-1.112c0.186-0.368,0.368-0.74,0.55-1.111
			c0.182-0.372,0.36-0.744,0.533-1.116c0.09-0.186,0.179-0.372,0.263-0.558l0.254-0.558c0.174-0.373,0.34-0.744,0.501-1.116
			c0.154-0.343,0.304-0.687,0.449-1.031c1.443-3.38,2.672-6.792,3.723-10.289c0.117-0.393,0.235-0.784,0.348-1.181
			c0.227-0.789,0.444-1.581,0.655-2.381c1.439-5.486,2.155-12.056,2.228-19C-140.784-94.875-141.543-103.344-143.015-111.236z"/>
		<path fill="#E64C3C" d="M-238.556-87.623c0.169,1.358,0.91,2.567,1.641,3.727c4.787,7.584,10.07,14.857,15.807,21.758
			c-0.263,1.847-0.565,3.739-0.914,5.671l-23.597-12.811c-0.922-0.501-1.868-1.011-2.903-1.185
			c-1.035-0.178-2.195,0.041-2.911,0.809c-0.958,1.035-0.805,2.741-0.033,3.921c0.769,1.18,2.01,1.957,3.207,2.701
			c8.271,5.142,16.384,10.543,24.231,16.312c-1.302,5.668-2.918,11.708-4.855,18.212c-1.642,0.408-3.267,0.897-4.759,1.69
			c-1.904,1.019-3.594,2.624-4.249,4.681c-0.659,2.058,0.344,4.629,2.135,5.838c1.208-0.667,2.433-1.338,3.678-1.961
			c-1.144,3.534-2.373,7.196-3.687,11c-8.882,25.708-15.807,58.47-17.408,70.877c-0.133,1.042-0.23,1.94-0.287,2.676
			c-4.763-7.462-29.136-36.077-51.419-56.068c-36.68-32.903-51.9-53.473-58.482-79.071c-1.37-5.329-2.049-11.667-2.118-18.386
			c-0.081-7.697,0.635-15.884,2.021-23.585c2.013,1.727,3.585,3.246,4.637,4.512c5.029,6.044,7.33,13.907,10.98,20.872
			c3.655,6.97,6.82,14.343,7.722,22.154c0.178,1.56,0.287,3.193,1.096,4.536c1.075,1.783,3.869,2.81,5.162,0.239
			c0.384-0.764,0.481-1.642,0.348-2.482l-2.887-18.422c-0.178-1.116,1.188-1.815,1.981-1.011c6.375,6.513,9.739,15.669,15.172,23.14
			c0.639,0.877,1.333,1.758,2.28,2.289c1.48,0.829,3.728,0.614,4.03-1.896c0.102-0.845-0.076-1.698-0.432-2.466l-12.035-24.325
			c-0.303-0.655,0.554-1.221,1.035-0.687c6.226,6.881,13.918,16.741,19.203,24.374c0.63,0.905,1.269,1.839,2.159,2.499
			c0.894,0.655,2.098,0.99,3.121,0.574c1.27-0.518,1.88-2.046,1.754-3.408c-0.122-1.363-0.817-2.6-1.508-3.784
			c-4.75-8.138-10.058-15.953-15.875-23.367c-0.748-0.954-1.541-1.985-1.589-3.209c-0.064-1.516,1.605-2.491,2.915-1.718
			l23.759,13.992c0.901,0.534,1.827,1.075,2.858,1.286c0.392,0.081,0.809,0.105,1.208,0.056c0.651-0.064,1.27-0.307,1.727-0.768
			c0.995-0.999,0.901-2.708,0.169-3.917c-0.46-0.768-1.124-1.382-1.848-1.924c-0.408-0.311-0.836-0.603-1.261-0.885
			c-9.638-6.473-19.049-13.301-28.023-20.667c-1.245-1.018-2.495-2.07-3.388-3.403c-0.894-1.334-1.395-3.02-0.979-4.572
			c0.655-2.434,3.271-3.784,5.729-4.346c2.458-0.562,4.641-1.403,7.111-1.9c2.118-0.429,4.265-0.866,6.206-1.815
			c1.94-0.95,3.682-2.494,4.41-4.528c0.728-2.033-0.182-4.637-1.928-5.91c-4.322,2.187-8.825,4.422-13.668,4.552
			c-4.998,0.133-9.784-2.001-14.76-2.438c-5.365-0.469-10.847,1.031-16.106-0.109c-4.479-0.966-8.279-3.731-11.882-6.638
			c0.101-0.166,0.202-0.328,0.303-0.485c23.678-37.043,73.241-40.722,101.625-15.402c0.004,0,0.004,0,0.004,0.004
			c3.193,2.846,6.121,6.064,8.712,9.642c5.15,6.161,9.965,13.167,13.797,20.157c3.344,6.088,5.943,12.165,7.374,17.65
			c0.938,3.598,1.682,7.196,2.215,10.847c-1.367-0.275-2.882,0.299-3.056,2.353c-0.073,0.845,0.133,1.69,0.518,2.446l3.525,6.541
			c0.084,2.85,0.048,5.765-0.109,8.769c-4.176-4.843-8.32-9.99-11.595-14.384c-0.659-0.885-1.33-1.795-2.244-2.417
			c-0.914-0.626-2.13-0.922-3.141-0.469C-238.167-90.529-238.725-88.981-238.556-87.623z"/>
		<path opacity="0.1" fill="#2D2827" d="M-143.015-111.236c-4.985-43.382-55.834-72.081-98.998-49.066
			c-0.219,0.117-0.437,0.235-0.655,0.36c-0.218,0.122-0.44,0.247-0.659,0.38c-0.235,0.137-0.465,0.274-0.699,0.42
			c-0.198,0.121-0.4,0.25-0.599,0.376c-0.448,0.291-0.897,0.59-1.35,0.905c-0.214,0.149-0.429,0.299-0.647,0.453
			c-0.153,0.113-0.312,0.226-0.469,0.344c-0.158,0.113-0.315,0.23-0.473,0.347c-0.315,0.239-0.631,0.481-0.946,0.728
			c-0.162,0.125-0.319,0.25-0.478,0.375c-0.295,0.239-0.594,0.481-0.893,0.728c-0.299,0.247-0.599,0.498-0.897,0.756
			c-0.25,0.214-0.501,0.433-0.756,0.651c-0.347,0.308-0.695,0.619-1.046,0.938c-0.057,0.052-0.114,0.105-0.17,0.158
			c-0.028,0.024-0.056,0.048-0.084,0.077c-0.029,0.028-0.057,0.053-0.085,0.081c-0.004,0-0.004,0-0.008,0.004
			c-0.081-0.073-0.162-0.142-0.243-0.215V65.871c1.464-2.119,4.039-5.413,7.422-9.468c0.21-0.255,0.424-0.509,0.643-0.769
			c0.053-0.064,0.105-0.125,0.158-0.19c0.384-0.456,0.78-0.921,1.184-1.398c0.053-0.065,0.109-0.13,0.162-0.194
			c0.469-0.549,0.95-1.112,1.443-1.686c0.42-0.486,0.845-0.979,1.281-1.48c0.251-0.291,0.506-0.582,0.764-0.877
			c1.281-1.468,2.627-2.992,4.03-4.556c0.279-0.311,0.562-0.626,0.846-0.942c0.569-0.631,1.144-1.27,1.729-1.912
			c0.877-0.967,1.771-1.94,2.681-2.927c0.606-0.655,1.221-1.318,1.839-1.981c0.619-0.663,1.246-1.333,1.876-2
			c4.107-4.354,8.449-8.81,12.859-13.139c0.449-0.441,0.898-0.877,1.346-1.314c1.274-1.241,2.555-2.465,3.833-3.675
			c0.663-0.626,1.322-1.245,1.985-1.859c0.016-0.017,0.028-0.029,0.044-0.041c0.78-0.728,1.564-1.448,2.341-2.155
			c0.393-0.359,0.78-0.711,1.168-1.059c0.259-0.238,0.517-0.469,0.776-0.7c0.258-0.23,0.518-0.461,0.776-0.691
			c1.621-1.439,3.198-2.854,4.738-4.249c0.498-0.449,0.991-0.897,1.479-1.343c6.881-6.274,12.933-12.096,18.249-17.61
			c-4.212-3.218-8.594-6.574-13.801-7.511c-5.3-0.954-10.726,0.736-16.099,0.453c-4.992-0.263-9.852-2.227-14.84-1.92
			c-3.457,0.214-6.703,1.496-9.82,3.064c-1.245,0.623-2.47,1.293-3.678,1.961c-1.791-1.209-2.794-3.78-2.135-5.838
			c0.655-2.058,2.345-3.662,4.249-4.681c1.492-0.792,3.117-1.282,4.759-1.69c0.456-0.121,0.917-0.23,1.378-0.339
			c2.454-0.583,4.605-1.5,7.043-2.147c2.438-0.646,5.001-2.086,5.57-4.543c0.364-1.565-0.194-3.23-1.136-4.537
			c-0.938-1.302-2.224-2.308-3.501-3.283c-1.487-1.135-2.987-2.26-4.499-3.363c-7.847-5.769-15.96-11.17-24.231-16.312
			c-1.197-0.744-2.438-1.521-3.207-2.701c-0.772-1.181-0.926-2.886,0.033-3.921c0.715-0.768,1.875-0.986,2.911-0.809
			c1.035,0.174,1.981,0.683,2.903,1.185l23.597,12.811l0.635,0.344c1.337,0.724,2.967-0.307,2.854-1.823
			c-0.093-1.221-0.917-2.223-1.702-3.149c-0.292-0.348-0.583-0.695-0.874-1.043c-5.736-6.901-11.02-14.174-15.807-21.758
			c-0.731-1.16-1.472-2.369-1.641-3.727s0.388-2.906,1.633-3.469c1.011-0.453,2.228-0.157,3.141,0.469
			c0.914,0.622,1.584,1.532,2.244,2.417c3.274,4.395,7.418,9.541,11.595,14.384c2.894,3.359,5.805,6.578,8.449,9.306
			c0.501,0.518,1.338-0.081,1.011-0.724l-9.351-17.351l-3.525-6.541c-0.384-0.756-0.59-1.601-0.518-2.446
			c0.174-2.054,1.689-2.627,3.056-2.353c0.315,0.061,0.619,0.17,0.902,0.315c0.966,0.497,1.694,1.351,2.361,2.207
			c5.688,7.277,9.371,16.312,15.973,22.595c0.816,0.78,2.159,0.032,1.944-1.08l-3.533-18.305c-0.162-0.841-0.093-1.718,0.263-2.494
			c1.205-2.616,4.035-1.69,5.167,0.056c0.857,1.314,1.023,2.944,1.257,4.492c1.172,7.778,4.593,15.039,8.485,21.871
			c3.894,6.836,6.465,14.614,11.704,20.48c2.583,2.895,8.114,7.103,15.459,12.047c0.583-0.78,1.144-1.556,1.69-2.333
			c0.259-0.36,0.514-0.72,0.756-1.08c0.262-0.375,0.521-0.752,0.776-1.128c0.255-0.375,0.505-0.752,0.756-1.128
			c0.25-0.375,0.493-0.748,0.731-1.12c0.607-0.934,1.189-1.868,1.751-2.797c0.113-0.186,0.222-0.372,0.335-0.558
			c0.267-0.441,0.529-0.885,0.78-1.33c0.162-0.275,0.324-0.554,0.477-0.829c0.271-0.469,0.53-0.938,0.781-1.403
			c0.194-0.352,0.384-0.699,0.57-1.051c0.008-0.013,0.016-0.029,0.021-0.041c0.161-0.304,0.319-0.607,0.477-0.914
			c0.194-0.368,0.384-0.74,0.57-1.112c0.186-0.368,0.368-0.74,0.55-1.111c0.182-0.372,0.36-0.744,0.533-1.116
			c0.09-0.186,0.179-0.372,0.263-0.558l0.254-0.558c0.174-0.373,0.34-0.744,0.501-1.116c0.154-0.343,0.304-0.687,0.449-1.031
			c1.443-3.38,2.672-6.792,3.723-10.289c0.117-0.393,0.235-0.784,0.348-1.181c0.227-0.789,0.444-1.581,0.655-2.381
			c1.439-5.486,2.155-12.056,2.228-19C-140.784-94.875-141.543-103.344-143.015-111.236z M-177.516-12.344
			c1.246-1.286,2.446-2.555,3.606-3.809C-175.074-14.898-176.274-13.629-177.516-12.344z"/>
	</g>
</g>
<g display="none">
	
		<text transform="matrix(0.8928 0 0 1 436.8052 -104.6924)" display="inline" fill="#282525" font-family="'Axis'" font-size="64.4991">Maroc</text>
	<text transform="matrix(1 0 0 1 304.1265 -54.7856)" display="inline" fill="#282525" font-family="'Axis'" font-size="72">Donneur</text>
</g>
<g display="none">
	
		<text transform="matrix(0.8928 0 0 1 3.6318 -72.6558)" display="inline" fill="#282525" font-family="'Questrial-Regular'" font-size="66.0745">Maroc</text>
	<text transform="matrix(0.8928 0 0 1 -9.0493 -77.7637)" fill="#282525" font-family="'CenturyGothic'" font-size="63.5143">Maroc</text>
	<text transform="matrix(0.8928 0 0 1 11.9507 -80.0459)" fill="#282525" font-family="'Gabriola'" font-size="96.946">Maroc</text>
	
		<text transform="matrix(1 0 0 1 -106.729 -29.5254)" display="inline" fill="#282525" font-family="'ProximaNova-Bold'" font-size="72">Donneur</text>
</g>
<g display="none">
	
		<text transform="matrix(0.8928 0 0 1 -550.5273 -204.7271)" fill="#282525" font-family="'Questrial-Regular'" font-size="78.6042">Maroc</text>
	
		<text transform="matrix(0.8928 0 0 1 -531.5278 -207.2036)" display="inline" fill="#282525" font-family="'CenturyGothic'" font-size="63.5143">Maroc</text>
	<text transform="matrix(0.8928 0 0 1 -510.5278 -209.4858)" fill="#282525" font-family="'Gabriola'" font-size="96.946">Maroc</text>
	
		<text transform="matrix(1 0 0 1 -629.2075 -158.9653)" display="inline" fill="#282525" font-family="'ProximaNova-Bold'" font-size="72">Donneur</text>
</g>
<g display="none">
	<text transform="matrix(0.8928 0 0 1 401.647 -229.9873)" fill="#282525" font-family="'Questrial-Regular'" font-size="78.6042">Maroc</text>
	<text transform="matrix(0.8928 0 0 1 420.646 -232.4639)" fill="#282525" font-family="'CenturyGothic'" font-size="63.5143">Maroc</text>
	
		<text transform="matrix(0.8928 0 0 1 441.646 -234.7461)" display="inline" fill="#282525" font-family="'Gabriola'" font-size="96.946">Maroc</text>
	
		<text transform="matrix(1 0 0 1 322.9663 -184.2256)" display="inline" fill="#282525" font-family="'ProximaNova-Bold'" font-size="72">Donneur</text>
</g>
<g display="none">
	
		<text transform="matrix(0.8928 0 0 1 11.9507 62.7134)" display="inline" fill="#282525" font-family="'Rockwell'" font-size="64.4991">Maroc</text>
	
		<text transform="matrix(1 0 0 1 -120.7275 112.6196)" display="inline" fill="#282525" font-family="'Rockwell-Bold'" font-size="72">Donneur</text>
</g>
<g display="none">
	
		<text transform="matrix(0.8928 0 0 1 421.8228 37.7603)" display="inline" fill="#282525" font-family="'TrajanPro-Regular'" font-size="52.7792">Maroc</text>
	
		<text transform="matrix(1 0 0 1 366.4458 84.4629)" display="inline" fill="#282525" font-family="'4f97ac65d814989297549b869cb3cdc7'" font-size="72">Donneur</text>
</g>
<g display="none">
	
		<text transform="matrix(1 0 0 1 88.6826 68.4873)" display="inline" fill="#282525" font-family="'MyriadPro-Regular'" font-size="52.3113">Maroc</text>
	
		<text transform="matrix(1 0 0 1 2.0615 108.0005)" display="inline" fill="#282525" font-family="'FuturaBT-BoldCondensed'" font-size="73.6986">Donneur</text>
</g>
<g>
	<path fill="#D04E44" d="M193.031,13.046v-7.78h-6v7.78h-7.81v6.01h7.81v7.81h6v-7.81h7.79v-6.01H193.031z"/>
</g>
<text transform="matrix(1 0 0 1 3.5601 103.7827)" fill="#D04E44" font-family="'ErasITC-Bold'" font-size="50.9073">Donneur</text>
</svg>
