<?xml version="1.0" encoding="utf-8"?>
<!-- Generator: Adobe Illustrator 16.0.0, SVG Export Plug-In . SVG Version: 6.00 Build 0)  -->
<!DOCTYPE svg PUBLIC "-//W3C//DTD SVG 1.1//EN" "http://www.w3.org/Graphics/SVG/1.1/DTD/svg11.dtd">
<svg version="1.1" id="svg2" xmlns:svg="http://www.w3.org/2000/svg"
	 xmlns="http://www.w3.org/2000/svg" xmlns:xlink="http://www.w3.org/1999/xlink" x="0px" y="0px" width="555.633px"
	 height="580.697px" viewBox="67.181 8.422 555.633 580.697" enable-background="new 67.181 8.422 555.633 580.697"
	 xml:space="preserve">
<path display="none" fill="#0000FF" d="M326.58,574.34c-1.45,1.76-2.42,3.11-2.87,3.99c-5.92,11.59-0.29,1.81-26.41-27.46
	c-13.78-15.44-48.17-45.53-76.44-66.88c-83.74-63.24-95.14-72.391-129.14-103.7C29.03,322.57,2.41,264.58,2.5,185.95
	c0.05-38.38,2.67-53.17,13.41-75.8C34.15,71.77,61.02,43.24,95.36,25.8c24.33-12.36,36.32-17.85,76.94-18.07
	c42.5-0.24,51.44,4.72,76.44,18.45c30.42,16.72,61.74,52.44,68.21,77.81l0.09,0.34c-9.38,13.72-16.99,27.54-21.76,40.28
	c-22.93,61.23-21.23,124.5,6.51,243.19C318.64,459.91,327.5,552.46,326.58,574.34z"/>
<g display="none">
	<path display="inline" fill="#E74C3C" d="M622.8,210.163c-0.183,17.181-1.946,33.431-5.509,46.993
		c-16.613,63.234-54.518,113.918-145.672,194.835c-54.532,48.395-114.166,117.45-127.326,137.128
		c-1.221-21.865-19.077-113.105-42.888-183.228c-39.196-115.415-47.067-178.216-30.224-241.392
		c3.503-13.146,9.728-27.643,17.723-42.213c21.444-39.11,55.584-78.683,83.693-93.681c106.77-56.926,232.554,14.062,244.879,121.37
		C621.121,169.503,623.005,190.45,622.8,210.163z"/>
	<path display="inline" fill="#E74C3C" d="M401.303,122.297c8.264,15.065,14.692,30.094,18.237,43.661
		c16.512,63.26,8.313,126.017-31.477,241.227c-23.813,68.912-41.948,158.332-43.771,181.935
		c-11.783-18.458-72.069-89.241-127.192-138.689C126.366,369.043,88.724,318.16,72.438,254.838
		c-3.389-13.174-5.071-28.862-5.241-45.479c-0.48-44.603,9.881-95.827,27.033-122.677C159.395-15.273,303.823-15.05,367.166,72.444
		C379.912,87.679,391.82,105.013,401.303,122.297z"/>
	<path display="inline" opacity="0.1" fill="#2D2827" d="M622.8,210.16c-0.18,17.18-1.95,33.43-5.51,47
		c-16.61,63.229-54.521,113.91-145.67,194.83C418.02,499.57,359.48,567.1,345,588.07v-540c0.2,0.18,0.4,0.35,0.6,0.53
		c9.21-8.49,18.391-15.4,27-19.99C479.37-28.32,605.15,42.67,617.48,149.98C621.12,169.5,623,190.45,622.8,210.16z"/>
</g>
<g>
	<path fill="#E74C3C" d="M617.48,149.98C605.15,42.67,479.37-28.32,372.6,28.61c-0.54,0.29-1.08,0.58-1.619,0.89
		c-0.54,0.3-1.091,0.61-1.631,0.94c-0.58,0.34-1.149,0.68-1.729,1.04c-0.49,0.3-0.99,0.62-1.48,0.93
		c-1.109,0.72-2.22,1.46-3.34,2.24c-0.53,0.37-1.06,0.74-1.6,1.12c-0.38,0.28-0.771,0.56-1.16,0.85c-0.39,0.28-0.78,0.57-1.17,0.86
		c-0.78,0.59-1.561,1.19-2.34,1.8c-0.4,0.31-0.79,0.62-1.181,0.93c-0.729,0.59-1.47,1.19-2.21,1.8c-0.739,0.61-1.479,1.23-2.22,1.87
		c-0.62,0.53-1.24,1.07-1.87,1.61c-0.859,0.76-1.72,1.53-2.59,2.32c-0.14,0.13-0.28,0.26-0.42,0.39c-0.07,0.06-0.14,0.12-0.21,0.19
		c-0.08,0.06-0.15,0.12-0.22,0.19c-0.011,0.01-0.011,0.02-0.011,0.02c-0.199,0.18-0.399,0.36-0.6,0.55
		c-20.64,19.19-41.37,46.27-56.1,73.14c-7.99,14.57-14.22,29.06-17.72,42.21c-4.67,17.53-7.44,35.04-8.16,53.64
		c1.79,1.34,3.43,2.86,4.57,4.76c1.81,2.99,2.04,7.22-0.42,9.69c-1.13,1.14-2.66,1.74-4.27,1.9c1.06,44.78,13.32,97.22,38.5,171.399
		c23.82,70.12,41.67,161.36,42.89,183.23c0.22-0.33,0.46-0.68,0.71-1.05c3.62-5.24,9.99-13.391,18.36-23.42
		c0.52-0.631,1.05-1.261,1.59-1.9c0.13-0.16,0.26-0.31,0.39-0.47c0.95-1.13,1.93-2.28,2.93-3.46c0.131-0.16,0.271-0.32,0.4-0.48
		c1.16-1.359,2.35-2.75,3.57-4.17c1.04-1.2,2.09-2.42,3.17-3.66c0.609-0.72,1.25-1.439,1.89-2.17c3.17-3.63,6.5-7.399,9.97-11.27
		c0.681-0.771,1.381-1.551,2.091-2.33c1.409-1.561,2.83-3.141,4.279-4.73c2.17-2.39,4.38-4.8,6.63-7.24
		c1.5-1.619,3.021-3.26,4.551-4.899c1.52-1.64,3.069-3.29,4.64-4.95c10.16-10.77,20.9-21.79,31.81-32.5
		c1.11-1.09,2.221-2.17,3.33-3.25c3.15-3.07,6.32-6.1,9.48-9.09c1.64-1.55,3.27-3.08,4.91-4.6c0.04-0.04,0.069-0.07,0.109-0.101
		c1.931-1.8,3.87-3.58,5.79-5.33c0.971-0.89,1.931-1.76,2.891-2.62c0.64-0.59,1.279-1.16,1.92-1.729c0.64-0.57,1.28-1.141,1.92-1.71
		c4.01-3.561,7.91-7.061,11.72-10.51c1.23-1.11,2.45-2.221,3.66-3.32c17.02-15.521,31.99-29.92,45.14-43.561
		c-10.42-7.96-21.26-16.26-34.14-18.58c-13.11-2.359-26.53,1.82-39.82,1.12c-12.35-0.649-24.37-5.51-36.71-4.75
		c-8.55,0.53-16.58,3.7-24.29,7.58c-3.08,1.54-6.109,3.2-9.1,4.851c-4.43-2.99-6.91-9.351-5.28-14.44
		c1.62-5.09,5.8-9.06,10.51-11.58c3.69-1.96,7.71-3.17,11.771-4.18c1.13-0.3,2.27-0.57,3.41-0.84c6.069-1.44,11.39-3.71,17.42-5.311
		c6.03-1.6,12.37-5.16,13.78-11.239c0.899-3.87-0.48-7.99-2.811-11.221c-2.32-3.22-5.5-5.71-8.66-8.12
		c-3.68-2.81-7.39-5.59-11.13-8.319c-19.41-14.271-39.479-27.63-59.939-40.35c-2.96-1.84-6.03-3.76-7.931-6.68
		c-1.91-2.92-2.29-7.14,0.08-9.7c1.771-1.9,4.641-2.44,7.2-2c2.56,0.43,4.9,1.69,7.18,2.93l58.37,31.69l1.57,0.85
		c3.31,1.79,7.34-0.76,7.06-4.51c-0.229-3.02-2.27-5.5-4.21-7.79c-0.72-0.86-1.439-1.72-2.16-2.58
		c-14.189-17.07-27.26-35.06-39.1-53.82c-1.81-2.87-3.64-5.86-4.06-9.22c-0.42-3.36,0.96-7.19,4.04-8.58
		c2.5-1.12,5.51-0.39,7.77,1.16c2.26,1.54,3.92,3.79,5.55,5.98c8.101,10.87,18.351,23.6,28.681,35.58
		c7.159,8.31,14.359,16.27,20.899,23.02c1.24,1.28,3.311-0.2,2.5-1.79l-23.13-42.92l-8.72-16.18c-0.95-1.87-1.46-3.96-1.28-6.05
		c0.43-5.08,4.18-6.5,7.56-5.82c0.78,0.15,1.53,0.42,2.23,0.78c2.39,1.23,4.19,3.34,5.84,5.46c14.07,18,23.18,40.35,39.51,55.89
		c2.021,1.93,5.341,0.08,4.811-2.67l-8.74-45.28c-0.4-2.08-0.229-4.25,0.65-6.17c2.979-6.47,9.979-4.18,12.779,0.14
		c2.12,3.25,2.53,7.28,3.11,11.11c2.9,19.24,11.36,37.2,20.99,54.1c9.63,16.91,15.99,36.15,28.95,50.66
		c6.39,7.16,20.069,17.57,38.239,29.801c1.44-1.931,2.83-3.851,4.181-5.771c0.63-0.89,1.26-1.78,1.87-2.67
		c0.649-0.93,1.29-1.86,1.92-2.79s1.25-1.86,1.87-2.79c0.609-0.92,1.22-1.85,1.81-2.77c1.5-2.311,2.94-4.62,4.33-6.92
		c0.28-0.46,0.55-0.92,0.83-1.381c0.66-1.09,1.31-2.189,1.93-3.289c0.4-0.681,0.8-1.37,1.18-2.051
		c0.671-1.16,1.311-2.319,1.931-3.47c0.479-0.87,0.95-1.729,1.41-2.6c0.02-0.03,0.04-0.07,0.05-0.101c0.399-0.75,0.79-1.5,1.18-2.26
		c0.48-0.91,0.95-1.83,1.41-2.75c0.46-0.91,0.91-1.83,1.36-2.75c0.449-0.92,0.89-1.84,1.319-2.76c0.221-0.46,0.44-0.92,0.65-1.38
		l0.63-1.38c0.43-0.921,0.84-1.841,1.24-2.761c0.38-0.85,0.75-1.7,1.109-2.55c3.57-8.36,6.61-16.8,9.21-25.45
		c0.29-0.97,0.58-1.94,0.86-2.92c0.561-1.95,1.1-3.91,1.62-5.89c3.56-13.57,5.33-29.82,5.51-47
		C623,190.45,621.12,169.5,617.48,149.98z"/>
	<path fill="#E74C3C" d="M381.15,208.39c0.42,3.36,2.25,6.35,4.06,9.22c11.84,18.76,24.91,36.75,39.1,53.82
		c-0.649,4.57-1.399,9.25-2.26,14.03l-58.37-31.69c-2.279-1.24-4.62-2.5-7.18-2.93c-2.56-0.44-5.43,0.1-7.2,2
		c-2.37,2.56-1.99,6.78-0.08,9.7c1.9,2.92,4.971,4.84,7.931,6.68c20.46,12.72,40.529,26.08,59.939,40.35
		c-3.22,14.02-7.22,28.96-12.01,45.05c-4.061,1.01-8.08,2.22-11.771,4.18c-4.71,2.521-8.89,6.49-10.51,11.58
		c-1.63,5.09,0.851,11.45,5.28,14.44c2.99-1.65,6.02-3.311,9.1-4.851c-2.83,8.74-5.87,17.8-9.12,27.21
		c-21.97,63.59-39.1,144.63-43.06,175.32c-0.33,2.58-0.57,4.8-0.71,6.62c-11.78-18.46-72.07-89.24-127.19-138.69
		C126.37,369.04,88.72,318.16,72.44,254.84c-3.39-13.18-5.07-28.86-5.24-45.48c-0.2-19.04,1.57-39.29,5-58.34
		c4.98,4.27,8.87,8.03,11.47,11.16c12.44,14.95,18.13,34.4,27.16,51.63c9.04,17.24,16.87,35.48,19.1,54.8
		c0.44,3.86,0.71,7.9,2.71,11.22c2.66,4.41,9.57,6.95,12.77,0.59c0.95-1.89,1.19-4.06,0.86-6.14l-7.14-45.57
		c-0.44-2.76,2.94-4.49,4.9-2.5c15.77,16.11,24.09,38.76,37.53,57.24c1.58,2.17,3.3,4.35,5.64,5.66c3.66,2.05,9.22,1.52,9.97-4.69
		c0.25-2.09-0.19-4.2-1.07-6.1l-29.77-60.17c-0.75-1.62,1.37-3.02,2.56-1.7c15.4,17.02,34.43,41.41,47.5,60.29
		c1.56,2.24,3.14,4.55,5.34,6.18c2.21,1.62,5.19,2.45,7.72,1.42c3.14-1.28,4.65-5.06,4.34-8.43c-0.3-3.37-2.02-6.43-3.73-9.36
		c-11.75-20.13-24.88-39.46-39.27-57.8c-1.85-2.36-3.81-4.91-3.93-7.94c-0.16-3.75,3.97-6.16,7.21-4.25l58.77,34.61
		c2.23,1.32,4.52,2.66,7.07,3.18c0.97,0.2,2,0.26,2.99,0.14c1.61-0.16,3.14-0.76,4.27-1.9c2.46-2.47,2.23-6.7,0.42-9.69
		c-1.14-1.9-2.78-3.42-4.57-4.76c-1.01-0.77-2.07-1.49-3.12-2.19c-23.84-16.01-47.12-32.9-69.32-51.12
		c-3.08-2.52-6.17-5.12-8.38-8.42c-2.21-3.3-3.45-7.47-2.42-11.31c1.62-6.02,8.09-9.36,14.17-10.75c6.08-1.39,11.48-3.47,17.59-4.7
		c5.24-1.06,10.55-2.14,15.35-4.49c4.8-2.35,9.11-6.17,10.91-11.2c1.8-5.03-0.45-11.47-4.77-14.62
		c-10.69,5.41-21.83,10.94-33.81,11.26c-12.36,0.33-24.2-4.95-36.51-6.03c-13.27-1.16-26.83,2.55-39.84-0.27
		c-11.08-2.39-20.48-9.23-29.39-16.42c0.25-0.41,0.5-0.81,0.75-1.2C152.8-4.95,275.4-14.05,345.61,48.58c0.01,0,0.01,0,0.01,0.01
		c7.899,7.04,15.14,15,21.55,23.85c12.74,15.24,24.65,32.57,34.13,49.86c8.271,15.06,14.7,30.09,18.24,43.66
		c2.32,8.9,4.16,17.8,5.479,26.83c-3.38-0.68-7.13,0.74-7.56,5.82c-0.18,2.09,0.33,4.18,1.28,6.05l8.72,16.18
		c0.21,7.05,0.12,14.26-0.27,21.69c-10.33-11.98-20.58-24.71-28.681-35.58c-1.63-2.19-3.29-4.44-5.55-5.98
		c-2.26-1.55-5.27-2.28-7.77-1.16C382.11,201.2,380.73,205.03,381.15,208.39z"/>
	<path opacity="0.1" fill="#2D2827" d="M617.48,149.98C605.15,42.67,479.37-28.32,372.6,28.61c-0.54,0.29-1.08,0.58-1.619,0.89
		c-0.54,0.3-1.091,0.61-1.631,0.94c-0.58,0.34-1.149,0.68-1.729,1.04c-0.49,0.3-0.99,0.62-1.48,0.93
		c-1.109,0.72-2.22,1.46-3.34,2.24c-0.53,0.37-1.06,0.74-1.6,1.12c-0.38,0.28-0.771,0.56-1.16,0.85c-0.39,0.28-0.78,0.57-1.17,0.86
		c-0.78,0.59-1.561,1.19-2.34,1.8c-0.4,0.31-0.79,0.62-1.181,0.93c-0.729,0.59-1.47,1.19-2.21,1.8c-0.739,0.61-1.479,1.23-2.22,1.87
		c-0.62,0.53-1.24,1.07-1.87,1.61c-0.859,0.76-1.72,1.53-2.59,2.32c-0.14,0.13-0.28,0.26-0.42,0.39c-0.07,0.06-0.14,0.12-0.21,0.19
		c-0.07,0.07-0.14,0.13-0.21,0.2c-0.01,0-0.01,0-0.021,0.01c-0.199-0.18-0.399-0.35-0.6-0.53v540c3.62-5.24,9.99-13.391,18.36-23.42
		c0.52-0.631,1.05-1.261,1.59-1.9c0.13-0.16,0.26-0.31,0.39-0.47c0.95-1.13,1.93-2.28,2.93-3.46c0.131-0.16,0.271-0.32,0.4-0.48
		c1.16-1.359,2.35-2.75,3.57-4.17c1.04-1.2,2.09-2.42,3.17-3.66c0.62-0.72,1.25-1.439,1.89-2.17c3.17-3.63,6.5-7.399,9.97-11.27
		c0.69-0.771,1.391-1.551,2.091-2.33c1.409-1.561,2.83-3.141,4.279-4.73c2.17-2.39,4.38-4.8,6.63-7.24
		c1.5-1.619,3.021-3.26,4.551-4.899c1.529-1.64,3.08-3.3,4.64-4.95c10.16-10.77,20.9-21.79,31.81-32.5
		c1.11-1.09,2.221-2.17,3.33-3.25c3.15-3.07,6.32-6.1,9.48-9.09c1.64-1.55,3.27-3.08,4.91-4.6c0.04-0.04,0.069-0.07,0.109-0.101
		c1.931-1.8,3.87-3.58,5.79-5.33c0.971-0.89,1.931-1.76,2.891-2.62c0.64-0.59,1.279-1.16,1.92-1.729c0.64-0.57,1.28-1.141,1.92-1.71
		c4.01-3.561,7.91-7.061,11.72-10.51c1.23-1.11,2.45-2.221,3.66-3.32c17.02-15.521,31.99-29.92,45.14-43.561
		c-10.42-7.96-21.26-16.26-34.14-18.58c-13.11-2.359-26.53,1.82-39.82,1.12c-12.35-0.649-24.37-5.51-36.71-4.75
		c-8.55,0.53-16.58,3.7-24.29,7.58c-3.08,1.54-6.109,3.2-9.1,4.851c-4.43-2.99-6.91-9.351-5.28-14.44
		c1.62-5.09,5.8-9.06,10.51-11.58c3.69-1.96,7.71-3.17,11.771-4.18c1.13-0.3,2.27-0.57,3.41-0.84c6.069-1.44,11.39-3.71,17.42-5.311
		c6.03-1.6,12.37-5.16,13.78-11.239c0.899-3.87-0.48-7.99-2.811-11.221c-2.32-3.22-5.5-5.71-8.66-8.12
		c-3.68-2.81-7.39-5.59-11.13-8.319c-19.41-14.271-39.479-27.63-59.939-40.35c-2.96-1.84-6.03-3.76-7.931-6.68
		c-1.91-2.92-2.29-7.14,0.08-9.7c1.771-1.9,4.641-2.44,7.2-2c2.56,0.43,4.9,1.69,7.18,2.93l58.37,31.69l1.57,0.85
		c3.31,1.79,7.34-0.76,7.06-4.51c-0.229-3.02-2.27-5.5-4.21-7.79c-0.72-0.86-1.439-1.72-2.16-2.58
		c-14.189-17.07-27.26-35.06-39.1-53.82c-1.81-2.87-3.64-5.86-4.06-9.22c-0.42-3.36,0.96-7.19,4.04-8.58
		c2.5-1.12,5.51-0.39,7.77,1.16c2.26,1.54,3.92,3.79,5.55,5.98c8.101,10.87,18.351,23.6,28.681,35.58
		c7.159,8.31,14.359,16.27,20.899,23.02c1.24,1.28,3.311-0.2,2.5-1.79l-23.13-42.92l-8.72-16.18c-0.95-1.87-1.46-3.96-1.28-6.05
		c0.43-5.08,4.18-6.5,7.56-5.82c0.78,0.15,1.53,0.42,2.23,0.78c2.39,1.23,4.19,3.34,5.84,5.46c14.07,18,23.18,40.35,39.51,55.89
		c2.021,1.93,5.341,0.08,4.811-2.67l-8.74-45.28c-0.4-2.08-0.229-4.25,0.65-6.17c2.979-6.47,9.979-4.18,12.779,0.14
		c2.12,3.25,2.53,7.28,3.11,11.11c2.9,19.24,11.36,37.2,20.99,54.1c9.63,16.91,15.99,36.15,28.95,50.66
		c6.39,7.16,20.069,17.57,38.239,29.801c1.44-1.931,2.83-3.851,4.181-5.771c0.64-0.89,1.27-1.78,1.87-2.67
		c0.649-0.93,1.29-1.86,1.92-2.79s1.25-1.86,1.87-2.79c0.619-0.93,1.22-1.85,1.81-2.77c1.5-2.311,2.94-4.62,4.33-6.92
		c0.28-0.46,0.55-0.92,0.83-1.381c0.66-1.09,1.31-2.189,1.93-3.289c0.4-0.681,0.8-1.37,1.18-2.051
		c0.671-1.16,1.311-2.319,1.931-3.47c0.479-0.87,0.95-1.729,1.41-2.6c0.02-0.03,0.04-0.07,0.05-0.101c0.399-0.75,0.79-1.5,1.18-2.26
		c0.48-0.91,0.95-1.83,1.41-2.75c0.46-0.91,0.91-1.83,1.36-2.75c0.449-0.92,0.89-1.84,1.319-2.76c0.221-0.46,0.44-0.92,0.65-1.38
		l0.63-1.38c0.43-0.921,0.84-1.841,1.24-2.761c0.38-0.85,0.75-1.7,1.109-2.55c3.57-8.36,6.61-16.8,9.21-25.45
		c0.29-0.97,0.58-1.94,0.86-2.92c0.561-1.95,1.1-3.91,1.62-5.89c3.56-13.57,5.33-29.82,5.51-47
		C623,190.45,621.12,169.5,617.48,149.98z M532.14,394.6c3.08-3.18,6.051-6.319,8.92-9.42C538.18,388.28,535.21,391.42,532.14,394.6
		z"/>
</g>
<path display="none" opacity="0.5" fill="#FF0000" d="M865.24,425.41c-6.67,24.14-14.36,37.04-39.44,66.1
	c-51.37,59.53-109.439,85.98-194.609,88.63c-46.19,1.44-60.801,0.9-165.511-6.05c-35.34-2.34-81.05-2.08-101.56,0.58
	c-38.91,5.061-41.05,16.13-37.94,3.5c0.19-0.8,0.33-2.09,0.4-3.83c15.02-18.3,81.11-81.2,140.11-124.04
	c98.619-71.63,141.29-118.37,164-179.68c4.869-13.15,8.21-29.15,10.069-46.23l0.82-0.57c21.5-14.96,68.55-21.49,102.5-14.23
	c27.89,5.96,37.89,8.07,69.88,36.04c30.58,26.75,36.06,38.75,46.38,64.01C874.9,345.3,876.56,384.44,865.24,425.41z"/>
<path display="none" fill="#664479" d="M541.06,385.18c-2.869,3.101-5.84,6.24-8.92,9.42C535.21,391.42,538.18,388.28,541.06,385.18
	z"/>
<path display="none" fill="#664479" d="M765.459,547.094c-30.153-18.021-220.717-130.654-248.639-151.972
	c-10.63-8.118-21.66-16.732-34.824-19.103c-13.104-2.36-26.523,1.822-39.82,1.119c-12.35-0.65-24.362-5.506-36.703-4.746
	c-11.959,0.737-22.9,6.652-33.396,12.432c-4.429-2.995-6.902-9.355-5.277-14.447c1.624-5.092,5.803-9.053,10.516-11.572
	s9.979-3.783,15.178-5.023c6.068-1.444,11.387-3.707,17.415-5.307c6.028-1.602,12.377-5.166,13.785-11.244
	c0.896-3.871-0.487-7.99-2.808-11.217c-2.322-3.225-5.505-5.711-8.665-8.122c-22.826-17.435-46.682-33.498-71.07-48.669
	c-2.96-1.841-6.026-3.761-7.929-6.679c-1.906-2.919-2.289-7.146,0.084-9.701c1.766-1.904,4.637-2.438,7.199-2.006
	c2.56,0.433,4.896,1.691,7.178,2.929l59.942,32.542c3.305,1.794,7.341-0.759,7.058-4.508c-0.229-3.024-2.273-5.495-4.207-7.792
	c-15.021-17.83-28.82-36.689-41.27-56.401c-1.806-2.863-3.631-5.862-4.051-9.222c-0.423-3.359,0.951-7.19,4.039-8.576
	c2.496-1.119,5.509-0.388,7.768,1.157c2.256,1.544,3.92,3.794,5.553,5.987c13.721,18.41,33.589,42.119,49.577,58.597
	c1.238,1.276,3.308-0.204,2.504-1.789l-31.854-59.099c-0.951-1.871-1.46-3.963-1.282-6.055c0.528-6.241,6.07-6.959,9.795-5.042
	c2.39,1.229,4.185,3.344,5.84,5.459c14.07,17.999,23.179,40.353,39.503,55.895c2.025,1.928,5.339,0.079,4.811-2.667l-8.733-45.287
	c-0.4-2.075-0.238-4.25,0.646-6.168c2.979-6.469,9.976-4.175,12.782,0.137c2.117,3.252,2.526,7.281,3.104,11.117
	c2.899,19.239,11.367,37.193,20.996,54.101c9.625,16.907,15.99,36.146,28.948,50.66c31.742,35.557,243.634,151.434,289.828,172.387
	C787.984,504.065,771.777,522.156,765.459,547.094z"/>
<path display="none" fill="#664479" d="M-203.755,16.17C-171.452,29.972,31.68,117.937,65.338,127.996
	c12.816,3.828,26.269,7.688,35.924,16.945c9.611,9.214,14.115,22.529,22.5,32.873c7.785,9.609,18.774,16.474,25.413,26.904
	c6.434,10.108,8.079,22.437,9.573,34.325c5.026,1.822,11.626,0.085,14.79-4.223c3.164-4.307,3.913-10.016,3.181-15.31
	c-0.731-5.293-2.805-10.296-4.857-15.231c-2.398-5.758-3.693-11.391-5.942-17.208c-2.248-5.818-3.096-13.05,0.994-17.762
	c2.604-3,6.75-4.303,10.725-4.321c3.974-0.017,7.855,1.097,11.664,2.235c27.521,8.22,54.54,18.077,81.147,28.891
	c3.23,1.313,6.586,2.665,10.064,2.488c3.482-0.173,7.127-2.349,7.799-5.77c0.502-2.548-0.752-5.185-2.609-7.003
	c-1.854-1.817-4.246-2.968-6.588-4.086l-61.56-29.366c-3.395-1.619-3.701-6.385-0.501-8.36c2.58-1.592,5.781-1.391,8.776-1.176
	c23.253,1.673,46.623,1.751,69.886,0.236c3.379-0.222,6.877-0.508,9.842-2.143c2.967-1.632,5.258-4.996,4.564-8.309
	c-0.563-2.677-2.926-4.685-5.502-5.604c-2.576-0.917-5.375-0.941-8.107-0.973c-22.959-0.279-53.818-2.417-76.547-5.667
	c-1.761-0.251-1.779-2.796-0.024-3.077l66.535-8.968c2.072-0.33,4.064-1.148,5.652-2.521c4.738-4.096,2.063-9.001-1.68-10.887
	c-2.398-1.211-5.164-1.42-7.848-1.516c-22.832-0.804-46.271,4.966-68.44,0.896c-2.75-0.505-3.201-4.273-0.67-5.459l41.772-19.554
	c1.914-0.896,3.578-2.305,4.609-4.148c3.482-6.212-2.486-10.524-7.623-10.26c-3.877,0.198-7.377,2.236-10.82,4.023
	c-17.268,8.962-36.771,12.665-56.109,14.813c-19.336,2.151-38.641,8.31-58,6.358C79.897,75.302-138.396-28.011-182.5-53.067
	C-182.185-27.345-187.294-3.6-203.755,16.17z"/>
</svg>
